<svg xmlns="http://www.w3.org/2000/svg" width="13" height="26" fill="none"><path d="M6.55 25c-5.007-.001-5.549-4.512-5.55-6.452l.023-13.567c0-.646.201-1.63.766-2.455C2.266 1.83 3.179.999 4.822.999h.004c1.34 0 2.4.489 3.064 1.415.678.946.751 2.059.751 2.494L8.62 18.552c0 .472.001 1.456-.636 2.105-.381.388-.923.585-1.613.585h-.005c-1.278 0-1.983-.957-1.985-2.696L4.374 4.96l.549-.001.007 13.586c.001 1.418.484 2.137 1.436 2.137h.004c.539 0 .95-.142 1.225-.421.475-.485.475-1.312.475-1.71l.021-13.645c0-.379-.063-1.35-.645-2.163C6.882 1.956 6 1.558 4.826 1.558h-.004c-1.129 0-1.997.433-2.583 1.287a3.986 3.986 0 0 0-.667 2.135l-.023 13.566c.001 1.77.49 5.89 5.001 5.892 4.264-.001 4.9-3.689 4.9-5.887l-.035-11.245.549-.002.035 11.246c0 4.097-1.986 6.447-5.45 6.447z" fill="#A6A3A1" stroke="#A6A3A1" stroke-width=".6"/></svg>