<svg width="284" height="322" fill="none" xmlns="http://www.w3.org/2000/svg"><g clip-path="url(#a)"><path d="M125.493 313.413c0 4.515-24.184 8.175-54.016 8.175-29.832 0-54.016-3.66-54.016-8.175 0-4.516 24.184-8.175 54.016-8.175 29.832 0 54.016 3.659 54.016 8.175Z" fill="#E9E8E7"/><path d="M177.911 191.103c4.286 4.583 4.4 11.485-2.631 13.246a9.267 9.267 0 0 1-3.51.19c-2.905-.37-5.535-1.979-8.185-3.39-16.208-8.673-32.322-17.649-49.003-25.375-3.898-1.808-13.162-7.565-14.647-.256-.681 3.333.293 7.073.757 10.425a2651.766 2651.766 0 0 1 6.055 46.517c1.316 10.775 2.555 21.559 3.653 32.363.596 5.794 1.466 11.815 2.044 17.837.482 5.103.747 10.197.444 15.131-.227 3.73-.927 8.076-3.69 10.831-3.936 3.929-7.257.511-9.358-3.115-3.643-6.278-6.018-13.738-8.231-20.64-3.833-11.978-5.072-24.807-9.898-36.453-1.325-3.2-3.368-8.105-7.106-9.127-4.286-1.184-7.938 3.777-9.764 6.977-3.057 5.369-4.183 11.742-6.255 17.517-2.602 7.214-5.185 14.448-7.806 21.663-1.4 3.872-2.65 8.105-4.126 12.205-1.154 3.181-2.45 6.268-4.087 9.032-1.429 2.414-3.236 4.943-7.03 3.276-3.321-1.458-3.851-5.662-3.974-8.739-.152-3.957.322-8.029.624-11.977 1.25-16.295 3.917-32.4 7.39-48.364 3.245-.227 5.961-1.875 7.002-5.699 1.39-5.094-1.183-8.655-4.163-12.186a1.62 1.62 0 0 0 .123-.445c1.428-16.266 2.138-32.58 3.463-48.856.113-1.316-1.58-1.751-2.423-1.004-5.828 5.151-11.316 10.68-17.107 15.879-3.35 3.001-6.566 6.324-5.024 11.087 1.656 5.132 5.942 9.061 9.197 13.17 1.93 2.434 3.832 4.895 5.762 7.338 1.05 1.325 2.375 2.699 3.624 4.128 1.609 1.847 3.104 3.787 3.728 5.842 1.732 5.662-3.065 8.891-8.355 7.432-3.491-.965-6.377-3.143-8.894-5.68-1.836-1.856-3.586-3.826-5.299-5.824-2.857-3.342-5.601-6.788-8.477-10.064-5.063-5.766-9.68-12.725-9.898-20.66-.227-7.934 4.334-13.558 9.775-18.766 10.947-10.5 22.046-20.744 34.09-29.976.777-.596 1.06-1.922 0-2.452-16.965-8.55-23.635-27.638-17.4-45.22 2.877-8.124 8.015-15.528 15.565-20.035 7.314-4.374 18.025-4.961 26.323-3.986 15.206 1.8 31.859 12.346 34.924 28.329 3.029 15.802-5.336 30.09-18.26 38.602-.976.643-.9 2.291.34 2.603 13.681 3.362 26.749 10.955 39.144 17.413 13.9 7.233 27.638 14.808 41.093 22.837 3.198 1.912 6.954 3.701 9.481 6.419Z" fill="#fff"/><path d="M69.39 199.314c1.293 1.139 2.776 2.917 4.339 3.75.045-.042.097-.087.158-.138.287-.237.597-.471.862-.732.82-.806 1.762-1.53 2.639-2.279 1.102-.941 4.616-2.839 5.194-4.132.787-1.762-1.218-6.68-1.668-8.454a226.06 226.06 0 0 0-2.245-8.11c-1.283-4.37-3.091-8.791-3.965-13.265-.55-2.81 1.39-3.552 2.963-5.669-.427-1.083-1.15-2.078-1.78-3.035-.333-.506-.646-1.188-1.092-1.606l-.04-.036c-1.357-.234-5.478-.33-6.094.152-.033.025-1.165 3.852-1.162 3.987.024.906.18.88.973 1.912 1.065 1.384 1.633 2.085 1.657 3.66.044 3.028-1.144 6.523-1.645 9.504-.742 4.413-1.47 8.827-2.162 13.248-.3 1.92-.615 3.84-.862 5.768-.06.467-.245 1.067-.187 1.534.019.154.02.232.016.284.791 1.347 2.966 2.657 4.1 3.657Z" fill="#DC296C"/><path d="m39.908 220.019-.085-.104c-2.734-3.389-5.374-6.855-8.09-10.254-2.564-3.219-6.954-6.978-7.73-11.229-.937-5.132 6.35-9.497 9.547-12.508 3.113-2.935 6.198-5.908 9.348-8.796-1.097 14.288-1.798 28.604-2.99 42.891Zm135.373-15.67a9.252 9.252 0 0 1-3.511.19c-2.905-.37-5.535-1.979-8.184-3.39-16.209-8.672-32.322-17.648-49.004-25.374-3.898-1.809-13.162-7.566-14.647-.256-.681 3.333.294 7.072.757 10.424a2642.308 2642.308 0 0 1 6.056 46.517c1.315 10.776 2.555 21.56 3.652 32.363.596 5.794 1.467 11.816 2.044 17.838.482 5.103.747 10.197.445 15.13-.228 3.731-.928 8.076-3.691 10.832-3.936 3.929-7.257.511-9.357-3.116-3.643-6.277-6.018-13.738-8.232-20.64-3.833-11.978-5.072-24.807-9.897-36.453-1.325-3.2-3.37-8.104-7.106-9.127-4.287-1.183-7.939 3.777-9.765 6.978-3.057 5.368-4.182 11.741-6.254 17.516-2.603 7.215-5.186 14.449-7.807 21.664-1.4 3.872-2.649 8.104-4.125 12.204-1.154 3.181-2.45 6.268-4.088 9.032-1.428 2.415-3.236 4.943-7.03 3.276-3.321-1.458-3.85-5.661-3.974-8.739-.151-3.957.322-8.029.624-11.977 1.25-16.295 3.918-32.4 7.39-48.363 3.246-.228 5.961-1.876 7.002-5.7 1.391-5.094-1.183-8.655-4.163-12.185a1.64 1.64 0 0 0 .123-.445c1.429-16.267 2.138-32.581 3.463-48.856.113-1.317-1.58-1.752-2.422-1.004-5.829 5.15-11.317 10.68-17.107 15.878-3.35 3.002-6.567 6.324-5.025 11.087 1.656 5.132 5.942 9.062 9.197 13.17 1.93 2.434 3.832 4.895 5.763 7.338 1.05 1.326 2.374 2.699 3.623 4.128 1.61 1.847 3.104 3.788 3.729 5.842 1.73 5.662-3.066 8.891-8.355 7.433-3.492-.966-6.378-3.144-8.895-5.681-1.835-1.856-3.586-3.826-5.298-5.823-2.858-3.342-5.602-6.789-8.478-10.064-5.062-5.767-9.68-12.726-9.897-20.661-.228-7.933 4.333-13.558 9.774-18.765 10.947-10.501 22.046-20.745 34.091-29.976.776-.597 1.06-1.922 0-2.453-16.965-8.549-23.636-27.637-17.4-45.22 2.876-8.123 8.014-15.527 15.565-20.034 7.314-4.375 18.025-4.962 26.323-3.986 15.205 1.799 31.858 12.346 34.924 28.328 3.028 15.803-5.337 30.09-18.261 38.602-.975.644-.9 2.291.34 2.604 13.682 3.361 26.749 10.954 39.144 17.412 13.9 7.234 27.638 14.808 41.093 22.837 3.199 1.912 6.954 3.702 9.481 6.419 4.286 4.583 4.4 11.486-2.63 13.246Zm2.081-17.459c-10.824-7.811-23.323-13.899-34.999-20.252-14.818-8.067-29.853-16.247-45.598-22.374a78.362 78.362 0 0 0-4.948-1.751c9.803-7.272 16.492-17.299 17.391-29.768.246-3.39.038-6.751-.625-9.999-1.797-9.023-6.973-17.146-15.1-22.316-13.314-8.465-28.359-10.728-43.668-6.647-14.164 3.778-22.954 18.624-25.386 32.211-2.82 15.746 5.327 31.728 19 39.596-11.346 8.863-21.877 18.539-32.304 28.47-5.1 4.858-9.821 10.018-10.881 17.233-.956 6.495.984 12.886 4.305 18.434 3.889 6.505 9.424 12.025 14.354 17.782.331.388.653.767.975 1.155 4.078 4.876 8.42 9.856 14.78 11.636.68.199 1.371.341 2.052.445-3.027 13.994-5.45 28.12-6.831 42.38-.729 7.536-5.394 29.143 7.21 30.212 4.39.37 7.106-3.36 8.752-6.911 1.192-2.566 2.243-5.198 3.236-7.868 1.325-3.551 2.546-7.149 3.832-10.68 2.63-7.225 5.195-14.477 7.816-21.711 2.186-6.012 3.378-12.914 6.567-18.463 1.94-3.38 6.604-7.205 9.48-2.821 1.543 2.348 2.574 5.046 3.472 7.688 2.3 6.684 3.615 13.625 5.186 20.498 1.675 7.329 3.917 14.515 6.614 21.522 2.044 5.331 3.955 11.589 7.882 15.868 7.38 8.048 14.391-2.102 15.489-9.572.889-6.069.028-12.347-.52-18.444-.038-.35-.067-.691-.095-1.042a892.591 892.591 0 0 0-1.495-15.915c-2.195-21.626-4.892-43.213-7.759-64.763-.757-5.681-1.514-11.371-2.328-17.043-.151-1.07-.321-2.139-.444-3.209-.284-2.718-.407-5.691 3.236-5.359 1.807.161 4.106 1.722 5.762 2.48 17.684 8.048 34.65 17.63 51.786 26.757 2.374 1.259 5.1 2.348 7.805 2.774 4.078.644 8.128-.189 10.966-4.109 4.107-5.671-.066-12.592-4.967-16.124Z" fill="#2E2D2D"/><path d="M82.584 195.782c-.578 1.293-4.093 3.191-5.195 4.132-.876.749-1.818 1.473-2.639 2.279-.264.261-.575.495-.861.732a3.574 3.574 0 0 0-.159.139c-1.562-.834-3.045-2.612-4.339-3.751-1.134-1-3.31-2.31-4.1-3.657.004-.051.002-.13-.017-.284-.058-.467.128-1.067.188-1.534.246-1.928.561-3.848.861-5.768.693-4.421 1.42-8.835 2.162-13.248.502-2.981 1.69-6.476 1.645-9.504-.023-1.575-.591-2.276-1.656-3.66-.794-1.032-.95-1.006-.973-1.911-.004-.136 1.128-3.963 1.161-3.988.616-.482 4.738-.386 6.095-.152l.04.036c.446.418.759 1.1 1.092 1.606.63.957 1.352 1.952 1.78 3.035-1.574 2.117-3.513 2.859-2.964 5.669.875 4.474 2.683 8.895 3.966 13.265.79 2.691 1.555 5.391 2.245 8.11.45 1.775 2.455 6.692 1.668 8.454Zm-5.69-29.884c-.309-2.111 1.35-2.735 2.767-4.763a.924.924 0 0 0 .236-.38.87.87 0 0 0-.067-.798c-.597-1.821-2.368-5.475-4.056-6.321-1.298-.651-6.484-.626-7.78.115-1.386.793-3.168 5.459-2.88 6.799.31 1.446 2.826 2.818 3.027 3.876.138.726-.364 1.989-.489 2.697-1.31 7.45-2.552 14.918-3.694 22.396-.265 1.736-1.262 4.616-.846 6.383.44 1.873 3.041 3.386 4.418 4.603 1.42 1.254 4.457 5.082 6.631 4.79 1.028-.139 2.405-1.865 3.13-2.49 2.275-1.96 4.52-3.992 7.048-5.623.287-.186.575-.549.528-.92-.96-7.499-3.274-14.809-5.465-22.022-.813-2.676-2.1-5.565-2.508-8.342ZM81.153 107.272c-.064 1.828 2.774 1.826 2.839 0a82.74 82.74 0 0 0-.341-10.928c-.176-1.803-3.016-1.821-2.838 0 .354 3.638.468 7.275.34 10.928ZM53.968 97.503a76.63 76.63 0 0 1 .478 10.749c-.05 1.829 2.788 1.827 2.839 0a76.555 76.555 0 0 0-.479-10.749c-.203-1.796-3.044-1.816-2.838 0Z" fill="#2E2D2D"/><path d="M225.98 313.414c0 3.423-17.801 6.197-39.759 6.197-21.959 0-39.76-2.774-39.76-6.197 0-3.424 17.801-6.198 39.76-6.198 21.958 0 39.759 2.774 39.759 6.198Z" fill="#E9E8E7"/><path d="M217.331 34.197c.615 1.23.908 3.03.492 4.375-.757 2.48-4.21 3.749-6.434 2.546-3.643-1.95-2.952-7.404.805-8.748 2.081-.493 4.106-.256 5.137 1.827ZM193.202 35.437c4.769.89 1.685 4.47-.899 5.805-1.343.69-2.762 1.23-4.097 1.93-6.718 3.542-12.925 8.418-17.533 14.487-2.592 3.418-4.655 7.262-5.885 11.38-.691 2.301-.643 5.852-2.233 7.774-2.082 2.519-4.873 1.77-5.621-1.278-.52-2.121-.312-4.365.095-6.467 2.489-11.371 9.103-21 18.905-27.42 4.173-2.736 11.969-7.205 17.268-6.21Z" fill="#fff"/><path d="M261.307 107.878c5.715-13.406 6.055-29.644 2.223-43.648-3.425-12.565-10.559-24.58-19.822-33.735-9.15-9.052-20.703-13.805-33.448-14.875l-.142-.01c-13.323-1.41-25.907 2.993-37.621 9.053-11.506 5.946-21.242 16.626-26.456 28.461-10.474 23.784 1.741 50.267 20.76 65.567 19.066 15.348 48.294 22.373 71.485 12.687 11.174-4.658 18.668-13.255 23.021-23.5Zm8.629-65.236c8.327 15.926 13.105 34.787 10.437 52.757-2.29 15.471-10.948 28.395-23.551 37.484-13.549 9.762-30.089 14.553-46.695 14.61a86.908 86.908 0 0 1-21.715-2.67 82.63 82.63 0 0 1-17.685-6.656c-26.928-13.871-42.871-43.232-40.09-73.425 3.104-33.773 33.269-59.991 66.755-61.354.122-.01.236-.02.34-.057h.028c14.931-2.282 30.439 3.058 43.469 10.026 12.527 6.685 22.141 16.712 28.707 29.285Z" fill="#CCCCC9"/><path d="M212.655 135.776c-13.485-.477-27.092-4.835-38.396-11.822 11.318 6.995 24.94 11.352 38.441 11.821l-.045.001Zm-38.415-11.834-.009-.006.009.006Zm-28.194-70.817c5.213-11.835 14.95-22.516 26.456-28.462.017-.01.034-.018.052-.027l-.052.027c-11.506 5.946-21.243 16.627-26.456 28.461Zm26.513-28.491.05-.027-.05.027Zm.112-.059.052-.026-.052.026Zm.054-.027c.018-.01.036-.02.054-.028l-.054.028Zm.056-.03c9.406-4.838 19.371-8.59 29.829-9.11l.02.002c-10.465.515-20.437 4.267-29.849 9.109Z" fill="#E9E8E7"/><path d="M210.281 135.816c-17.398 0-35.238-6.607-48.304-17.125-19.018-15.301-31.234-41.784-20.76-65.567 5.214-11.835 14.95-22.516 26.456-28.462 10.225-5.289 21.112-9.312 32.575-9.312.783 0 1.57.02 2.358.058-10.457.519-20.422 4.27-29.829 9.11h-.001l-.054.029h-.002a1.31 1.31 0 0 1-.053.027l-.005.003a2.308 2.308 0 0 0-.05.026l-.006.003-.051.027-.004.002-.053.027c-11.506 5.947-21.242 16.627-26.456 28.462a46.329 46.329 0 0 0-1.374 3.501c-7.891 22.842 4.044 47.512 22.133 62.066a73.638 73.638 0 0 0 7.427 5.244l.009.006a.113.113 0 0 1 .018.012c11.304 6.987 24.912 11.345 38.397 11.822-.79.028-1.579.041-2.371.041Z" fill="#B7B6B5"/><path d="m241.232 13.357-.052-.028c.017.01.035.02.052.028Z" fill="#E9E8E7"/><path d="M209.841 147.494c-.877 0-1.755-.015-2.633-.041 15.962-.404 31.759-5.181 44.79-14.569 12.603-9.089 21.261-22.014 23.551-37.485 2.669-17.97-2.11-36.83-10.437-52.756-6.567-12.574-16.179-22.6-28.707-29.285-10.248-5.481-22.03-9.937-33.858-10.487a49.75 49.75 0 0 1 2.408-.057c12.614 0 25.289 4.675 36.223 10.516l.052.028c12.527 6.684 22.141 16.71 28.707 29.285 6.757 12.924 11.177 27.78 11.178 42.526 0 3.425-.239 6.843-.741 10.23-2.29 15.471-10.948 28.396-23.551 37.485-13.55 9.762-30.089 14.553-46.695 14.61h-.287Z" fill="#B7B6B5"/><path d="M198.615 37.568c.189-10.481-18.12-1.95-22.264.483-11.336 6.628-19.274 17.516-22.056 30.26-.019.057-.019.123-.029.18-.681 3.598-1.154 9.591 2.309 12.044 2.669 1.875 6.34.549 8.118-1.875 1.392-1.884 1.694-4.1 2.186-6.325.672-3.02 1.722-5.889 3.208-8.606 2.848-5.189 7.059-9.591 11.761-13.161 3.34-2.528 7.002-4.744 10.844-6.429 3.169-1.382 5.847-2.528 5.923-6.57Zm20.485 4.299c2.053-2.187 2.109-5.548 1.069-8.237-1.41-3.655-4.769-4.8-8.364-4.072-.114.01-.237.028-.369.076a1.252 1.252 0 0 0-.398.16c-4.352 1.81-6.406 7.15-3.709 11.278 2.725 4.184 8.421 4.345 11.771.795Zm37.81 12.422c7.134 15.282 8.998 36.244 2.062 52.605-2.989 7.054-7.616 13.256-14.164 17.772-19.936 13.757-49.883 8.957-69.328-3.248-19.728-12.384-34.744-35.657-29.322-59.62 2.98-13.162 12.66-25.243 23.881-32.439 11.695-7.499 26.305-12.403 40.224-10.898 21.781 1.828 37.639 16.56 46.647 35.828Z" fill="#F5F6F5"/><path d="M212.082 199.889c.114 5.539.255 11.078.066 16.626-.388 11.58-1.883 23.188-2.933 34.729-.966 10.718-1.514 21.597-3.227 32.23-1.372 8.55-2.839 20.83-9.821 26.833-4.287 3.693-12.434 2.007-17.533 1.089-4.656-.833-11.402-1.724-13.966-6.173-4.305-7.452-1.855-19.022-1.117-27.098 2.726-22.392 3.624-45.154 8.913-67.158a266.25 266.25 0 0 1 3.653-13.719c1.571-5.321 2.999-12.432 8.875-14.382.067-.029.142-.058.218-.076 6.254-1.903 15.016-1.458 20.797 2.329a14.241 14.241 0 0 1 2.101 1.638c3.869 3.664 3.869 8.133 3.974 13.132Z" fill="#7A7B7C"/><path d="m196.059 310.394.001-.002-.001.002Zm.02-.018a.106.106 0 0 0 .011-.009l-.011.009Zm.012-.009.011-.009-.011.009Z" fill="#D0D0CE"/><path d="m205.83 185.008-.005-.003.005.003Zm-.034-.022-.003-.001.003.001Z" fill="#E9E8E7"/><path d="M189.555 312.545c4.412-7.213 5.706-17.426 6.923-25.01 1.904-11.821 2.514-23.915 3.587-35.831 1.167-12.832 2.83-25.736 3.261-38.61.21-6.168.053-12.327-.074-18.484-.09-4.319-.119-8.28-2.143-11.744 1.68.521 3.268 1.222 4.685 2.119l.003.002.029.019.005.002a.48.48 0 0 0 .038.025l.028.018a.073.073 0 0 0 .009.005l.021.014.01.007.027.017.009.006.03.019a14.187 14.187 0 0 1 2.1 1.639c3.87 3.664 3.87 8.132 3.974 13.132.074 3.57.159 7.14.159 10.712 0 1.97-.025 3.941-.092 5.914-.388 11.58-1.883 23.188-2.934 34.729-.965 10.718-1.514 21.597-3.226 32.23-1.185 7.384-2.441 17.551-7.26 24.053a16.938 16.938 0 0 1-2.562 2.78l-.012.01-.001.001-.01.008a.002.002 0 0 1-.002.002l-.009.008-.002.002-.01.008-.002.002-.01.008-.002.002a.09.09 0 0 1-.01.009h-.001a.106.106 0 0 1-.011.009.037.037 0 0 1-.007.006l-.003.003-.009.007-.001.001c-1.716 1.424-4.028 2.01-6.505 2.151Z" fill="#6C6D6F"/><path d="M208.644 150.332c-.398 10.482-2.536 20.83-3.046 31.302-3.142-1.543-6.728-2.338-10.163-2.472-3.463-.141-6.661-.037-9.49.673.662-10.68 2.214-21.275 3.047-31.927a90.262 90.262 0 0 0 19.652 2.424Z" fill="#CCCCC9"/><path d="M208.645 150.332a90.133 90.133 0 0 1-5.197-.217l.001-.003c1.729.122 3.463.198 5.196.22Zm-3.083 31.285a23.637 23.637 0 0 0-4.695-1.684l.001-.005a23.58 23.58 0 0 1 4.694 1.689Z" fill="#E9E8E7"/><path d="m205.597 181.634-.035-.017a23.611 23.611 0 0 0-4.695-1.689c.706-9.951 2.072-19.842 2.581-29.813 1.729.122 3.463.195 5.196.217-.398 10.482-2.536 20.83-3.047 31.302Z" fill="#B7B6B5"/><path d="M280.372 95.399c-2.29 15.471-10.948 28.395-23.551 37.484-13.55 9.762-30.09 14.553-46.695 14.61a86.902 86.902 0 0 1-21.715-2.67c-6.132-1.544-12.083-3.768-17.685-6.656-26.928-13.871-42.872-43.232-40.09-73.426 3.104-33.773 33.268-59.99 66.755-61.354.122-.01.236-.019.34-.057h.028c14.931-2.281 30.439 3.058 43.469 10.027 12.527 6.685 22.14 16.711 28.707 29.285 8.327 15.926 13.104 34.787 10.437 52.757Zm-74.778 86.236c-3.142-1.543-6.728-2.338-10.163-2.471-3.463-.142-6.661-.038-9.49.672.662-10.68 2.214-21.275 3.047-31.927a90.27 90.27 0 0 0 19.653 2.424c-.398 10.482-2.536 20.831-3.047 31.302Zm6.481 18.255c.114 5.539.255 11.077.067 16.626-.389 11.58-1.883 23.188-2.934 34.729-.965 10.718-1.514 21.597-3.226 32.23-1.373 8.549-2.839 20.83-9.822 26.833-4.286 3.693-12.433 2.007-17.533 1.089-4.655-.834-11.402-1.724-13.966-6.173-4.305-7.453-1.855-19.022-1.117-27.099 2.726-22.392 3.625-45.154 8.914-67.158a267.81 267.81 0 0 1 3.652-13.719c1.571-5.321 2.999-12.431 8.876-14.382.066-.028.141-.057.217-.076 6.254-1.903 15.016-1.458 20.798 2.329a14.239 14.239 0 0 1 2.1 1.639c3.87 3.664 3.87 8.132 3.974 13.132Zm65.306-147.58c-6.32-16.39-16.444-30.83-31.82-39.795-14.26-8.323-31.603-14.41-48.247-11.968-30.107 1.268-59.733 22.534-67.454 52.217-7.872 30.25 4.277 63.768 29.663 81.9 8.052 5.746 17.145 9.941 26.692 12.536-.851 11.134-2.507 22.212-3.16 33.375a.886.886 0 0 0 .019.274c-2.99 1.402-5.403 3.835-7.059 7.897-11.439 28.063-11.695 59.735-15.309 89.379-.794 8.616-2.848 19.495 1.069 27.676 3.634 7.602 14.998 8.531 22.387 9.155 4.419.379 8.961.957 12.793-1.675 3.539-2.433 5.715-6.552 7.229-10.453 4.078-10.444 5.185-22.061 6.188-33.129 1.344-14.761 2.715-29.532 4.021-44.302.568-6.457.738-12.895.643-19.381-.075-5.075.644-11.154-1.286-15.983-1.136-2.831-3.047-5.065-5.393-6.75v-.029c.359-11.031 2.705-21.909 3.122-32.93 13.852-.256 27.62-3.712 39.693-10.481 13.114-7.357 24.365-18.729 29.408-33.101 6.15-17.544 3.34-37.447-3.199-54.433Z" fill="#2E2D2D"/><path d="M258.974 106.894c-2.99 7.053-7.617 13.255-14.165 17.772-19.936 13.757-49.883 8.957-69.328-3.248-19.728-12.384-34.743-35.657-29.322-59.621 2.981-13.161 12.66-25.242 23.882-32.438 11.695-7.5 26.304-12.404 40.223-10.898 21.782 1.828 37.639 16.56 46.647 35.827 7.135 15.282 8.999 36.245 2.063 52.606Zm-15.262-76.399c-9.15-9.052-20.703-13.804-33.448-14.874l-.142-.01c-13.323-1.41-25.907 2.992-37.621 9.052-11.506 5.945-21.242 16.626-26.455 28.461-10.475 23.784 1.74 50.267 20.759 65.567 19.066 15.348 48.294 22.374 71.485 12.687 11.175-4.658 18.669-13.255 23.021-23.5 5.715-13.406 6.056-29.644 2.224-43.648-3.426-12.564-10.56-24.58-19.823-33.735Z" fill="#2E2D2D"/><path d="M217.822 38.571c-.757 2.48-4.21 3.75-6.434 2.547-3.643-1.95-2.952-7.404.805-8.749 2.081-.492 4.106-.255 5.137 1.827.615 1.231.908 3.03.492 4.375Zm-6.018-9.014c-.123.02-.246.048-.369.076-.132.047-.265.104-.397.16-4.353 1.81-6.406 7.15-3.709 11.277 2.725 4.185 8.421 4.346 11.77.796 2.054-2.187 2.11-5.548 1.07-8.237-1.41-3.655-4.769-4.8-8.365-4.072ZM192.305 41.24c-1.344.691-2.763 1.23-4.098 1.931-6.718 3.541-12.925 8.418-17.533 14.487-2.592 3.418-4.655 7.262-5.885 11.38-.691 2.301-.643 5.852-2.233 7.774-2.081 2.519-4.873 1.77-5.62-1.278-.521-2.121-.313-4.365.094-6.467 2.489-11.371 9.103-21 18.906-27.42 4.172-2.736 11.968-7.205 17.267-6.211 4.77.89 1.685 4.47-.898 5.804Zm-15.954-3.19c-11.335 6.627-19.273 17.515-22.055 30.26-.019.056-.019.122-.029.18-.681 3.597-1.154 9.59 2.309 12.043 2.669 1.875 6.34.55 8.118-1.875 1.392-1.884 1.694-4.1 2.186-6.325.672-3.02 1.722-5.889 3.208-8.606 2.848-5.189 7.059-9.591 11.761-13.16 3.34-2.529 7.002-4.745 10.844-6.43 3.169-1.382 5.847-2.527 5.923-6.57.189-10.482-18.12-1.95-22.265.482Z" fill="#2E2D2D"/></g><defs><clipPath id="a"><path fill="#fff" d="M0 0h284v321.588H0z"/></clipPath></defs></svg>