<svg viewBox="0 0 26 25" fill="none" xmlns="http://www.w3.org/2000/svg">
<path d="M10.3455 4.65809C8.20839 5.0645 6.70673 6.62989 5.83985 9.35296C5.4061 10.6991 5.18986 12.0292 5.18986 13.3433V13.7664C5.22029 13.86 5.25137 14.0946 5.28244 14.4703H10.3455V24.7055H0.452148V15.2683C0.452148 10.6363 1.36532 7.06771 3.19229 4.56386C5.01927 2.06001 7.40303 0.62027 10.3455 0.244629V4.65809ZM25.9975 4.65809C24.2941 4.9395 22.9941 5.91001 22.0962 7.56835C21.2293 9.22732 20.7956 11.1369 20.7956 13.2966V13.8607C20.8266 14.0478 20.8729 14.2517 20.9351 14.4703H25.9975V24.7055H16.0579V15.2683C16.0579 11.544 16.8321 8.22604 18.3801 5.31514C19.9287 2.37283 22.4678 0.682449 25.9975 0.244629V4.65809Z" fill="#DC296C"/>
</svg>
