<svg width="299" height="303" fill="none" xmlns="http://www.w3.org/2000/svg"><path d="M149.105 41.367H94.699v75.386h54.406V41.367Z" fill="#DC296C"/><path fill-rule="evenodd" clip-rule="evenodd" d="M149.099 116.752H94.694V41.367h54.405v75.385ZM59.007 41.367v230.785c0 15.53-12.548 28.077-28.077 28.077H295.448V2.902H59.007v38.464Z" fill="#F7E7ED"/><path fill-rule="evenodd" clip-rule="evenodd" d="M59.012 272.05V41.367H30.935v40.316H2.96v190.47c0 7.713 3.188 14.706 8.228 19.849 5.039 5.039 12.032 8.227 19.849 8.227 15.427-.102 27.974-12.65 27.974-28.179Z" fill="#F6D1DF"/><path d="M295.449 302.903H59.007a2.765 2.765 0 0 1-2.776-2.777 2.765 2.765 0 0 1 2.776-2.776h233.665V5.68H61.784v266.37a2.765 2.765 0 0 1-2.777 2.776 2.765 2.765 0 0 1-2.776-2.776V2.903A2.765 2.765 0 0 1 59.007.126H295.45a2.765 2.765 0 0 1 2.777 2.777v297.223a2.765 2.765 0 0 1-2.777 2.777Z" fill="#000"/><path d="M59.01 44.144H30.933a2.765 2.765 0 0 1-2.777-2.777 2.765 2.765 0 0 1 2.777-2.777H59.01a2.765 2.765 0 0 1 2.777 2.777 2.765 2.765 0 0 1-2.777 2.777ZM30.936 302.903c-8.228 0-15.941-3.188-21.804-9.051-5.862-5.862-9.05-13.575-9.05-21.803V81.682a2.765 2.765 0 0 1 2.777-2.777 2.765 2.765 0 0 1 2.777 2.777v190.47c0 6.788 2.674 13.061 7.405 17.895a25.206 25.206 0 0 0 17.895 7.405c13.884 0 25.3-11.313 25.3-25.3a2.765 2.765 0 0 1 2.777-2.777 2.765 2.765 0 0 1 2.776 2.777c0 16.97-13.781 30.751-30.853 30.751Z" fill="#000"/><path d="M59.01 302.902H30.933a2.765 2.765 0 0 1-2.777-2.777 2.765 2.765 0 0 1 2.777-2.776H59.01a2.765 2.765 0 0 1 2.777 2.776 2.765 2.765 0 0 1-2.777 2.777ZM30.933 264.541a2.765 2.765 0 0 1-2.777-2.776V41.367a2.765 2.765 0 0 1 2.777-2.777 2.765 2.765 0 0 1 2.777 2.777v220.398a2.765 2.765 0 0 1-2.777 2.776Z" fill="#000"/><path d="M30.938 84.459H2.964a2.765 2.765 0 0 1-2.776-2.777 2.765 2.765 0 0 1 2.776-2.777h28.077a2.765 2.765 0 0 1 2.777 2.777c-.103 1.543-1.337 2.777-2.88 2.777ZM149.104 119.427H94.699a2.765 2.765 0 0 1-2.777-2.777V41.264a2.765 2.765 0 0 1 2.777-2.777h54.405a2.765 2.765 0 0 1 2.777 2.777v75.386a2.765 2.765 0 0 1-2.777 2.777Zm-51.629-5.451h48.852V44.144H97.475v69.832ZM259.766 155.73H94.699a2.765 2.765 0 0 1-2.777-2.776 2.765 2.765 0 0 1 2.777-2.777h165.067a2.766 2.766 0 0 1 2.777 2.777 2.766 2.766 0 0 1-2.777 2.776ZM194.459 192.036h-99.76a2.765 2.765 0 0 1-2.777-2.777 2.766 2.766 0 0 1 2.777-2.777h99.76a2.766 2.766 0 0 1 2.777 2.777c0 1.44-1.234 2.777-2.777 2.777ZM259.765 192.036h-44.738a2.765 2.765 0 0 1-2.777-2.777 2.766 2.766 0 0 1 2.777-2.777h44.738a2.766 2.766 0 0 1 2.776 2.777c0 1.44-1.234 2.777-2.776 2.777ZM259.766 228.236H94.699a2.765 2.765 0 0 1-2.777-2.777 2.765 2.765 0 0 1 2.777-2.776h165.067a2.766 2.766 0 0 1 2.777 2.776 2.766 2.766 0 0 1-2.777 2.777ZM227.265 46.92h-47.926a2.766 2.766 0 0 1-2.777-2.776 2.766 2.766 0 0 1 2.777-2.777h47.926a2.765 2.765 0 0 1 2.777 2.777 2.765 2.765 0 0 1-2.777 2.777ZM259.765 83.225h-80.426a2.766 2.766 0 0 1-2.777-2.776 2.766 2.766 0 0 1 2.777-2.777h80.426a2.765 2.765 0 0 1 2.776 2.777 2.765 2.765 0 0 1-2.776 2.776ZM259.765 119.427h-80.426a2.766 2.766 0 0 1-2.777-2.777 2.766 2.766 0 0 1 2.777-2.777h80.426a2.765 2.765 0 0 1 2.776 2.777 2.765 2.765 0 0 1-2.776 2.777ZM144.887 264.542H94.699a2.765 2.765 0 0 1-2.777-2.777 2.765 2.765 0 0 1 2.777-2.777h50.188a2.765 2.765 0 0 1 2.777 2.777 2.765 2.765 0 0 1-2.777 2.777ZM259.767 264.542h-95.646a2.765 2.765 0 0 1-2.777-2.777 2.765 2.765 0 0 1 2.777-2.777h95.646a2.765 2.765 0 0 1 2.777 2.777 2.765 2.765 0 0 1-2.777 2.777Z" fill="#000"/></svg>