<svg width="16" height="17" viewBox="0 0 16 17" fill="none" xmlns="http://www.w3.org/2000/svg">
<path d="M7.99785 5.57048C6.52888 5.57048 5.3301 6.76929 5.3301 8.23828C5.3301 9.70727 6.52888 10.9061 7.99785 10.9061C9.46681 10.9061 10.6656 9.70727 10.6656 8.23828C10.6656 6.76929 9.46681 5.57048 7.99785 5.57048ZM15.9991 8.23828C15.9991 7.13353 16.0091 6.03879 15.9471 4.93605C15.885 3.65518 15.5928 2.51842 14.6562 1.58178C13.7176 0.64315 12.5829 0.352954 11.302 0.290912C10.1973 0.22887 9.10258 0.238877 7.99985 0.238877C6.89512 0.238877 5.80041 0.22887 4.69768 0.290912C3.41684 0.352954 2.28009 0.645151 1.34348 1.58178C0.404861 2.52042 0.11467 3.65518 0.0526294 4.93605C-0.00941132 6.0408 0.000595279 7.13554 0.000595279 8.23828C0.000595279 9.34103 -0.00941132 10.4378 0.0526294 11.5405C0.11467 12.8214 0.406862 13.9581 1.34348 14.8948C2.28209 15.8334 3.41684 16.1236 4.69768 16.1857C5.80241 16.2477 6.89713 16.2377 7.99985 16.2377C9.10458 16.2377 10.1993 16.2477 11.302 16.1857C12.5829 16.1236 13.7196 15.8314 14.6562 14.8948C15.5948 13.9561 15.885 12.8214 15.9471 11.5405C16.0111 10.4378 15.9991 9.34303 15.9991 8.23828ZM7.99785 12.3431C5.72636 12.3431 3.89315 10.5098 3.89315 8.23828C3.89315 5.96675 5.72636 4.13351 7.99785 4.13351C10.2693 4.13351 12.1025 5.96675 12.1025 8.23828C12.1025 10.5098 10.2693 12.3431 7.99785 12.3431ZM12.2707 4.92404C11.7403 4.92404 11.312 4.49575 11.312 3.96539C11.312 3.43504 11.7403 3.00675 12.2707 3.00675C12.801 3.00675 13.2293 3.43504 13.2293 3.96539C13.2294 4.09133 13.2048 4.21606 13.1566 4.33244C13.1085 4.44882 13.0379 4.55456 12.9489 4.64361C12.8598 4.73266 12.7541 4.80327 12.6377 4.85139C12.5213 4.89951 12.3966 4.9242 12.2707 4.92404Z" fill="white"/>
</svg>
