<svg width="16" height="17" viewBox="0 0 16 17" fill="none" xmlns="http://www.w3.org/2000/svg">
<path d="M7.77143 5.76971C8.60983 4.91302 9.70149 4.35257 10.9714 4.35257C12.3051 4.35257 13.5841 4.88236 14.5272 5.8254C15.4702 6.76844 16 8.04748 16 9.38114V16.2383H14.1714V9.38114C14.1714 8.53245 13.8343 7.71851 13.2342 7.1184C12.6341 6.51828 11.8201 6.18114 10.9714 6.18114C10.1227 6.18114 9.3088 6.51828 8.70869 7.1184C8.10857 7.71851 7.77143 8.53245 7.77143 9.38114V16.2383H5.94286V4.80971H7.77143V5.76971ZM1.37143 2.98114C1.0077 2.98114 0.658875 2.83665 0.401682 2.57946C0.144489 2.32226 0 1.97344 0 1.60971C0 1.24598 0.144489 0.897156 0.401682 0.639963C0.658875 0.382771 1.0077 0.238281 1.37143 0.238281C1.73515 0.238281 2.08398 0.382771 2.34118 0.639963C2.59837 0.897156 2.74286 1.24598 2.74286 1.60971C2.74286 1.97344 2.59837 2.32226 2.34118 2.57946C2.08398 2.83665 1.73515 2.98114 1.37143 2.98114ZM0.457143 4.80971H2.28571V16.2383H0.457143V4.80971Z" fill="white"/>
</svg>
