<svg width="13" height="17" viewBox="0 0 13 17" fill="none" xmlns="http://www.w3.org/2000/svg">
<path d="M5.97005e-05 5.97766C5.97005e-05 5.28591 0.127731 4.63239 0.379318 4.02245C0.619691 3.43002 0.976818 2.88628 1.43167 2.42022C1.88559 1.96028 2.40504 1.56256 2.97499 1.23856C3.55976 0.903494 4.19284 0.650708 4.85438 0.488132C5.52392 0.321616 6.21334 0.23764 6.90557 0.238285C7.97482 0.238285 8.96991 0.452567 9.89271 0.879352C10.8035 1.29835 11.5787 1.94138 12.1373 2.7412C12.7137 3.55476 13 4.47502 13 5.50108C13 6.11636 12.9362 6.71831 12.8057 7.30691C12.6776 7.89519 12.4739 8.46641 12.1992 9.00783C11.9374 9.53194 11.5952 10.0164 11.1835 10.4456C10.7698 10.8679 10.2687 11.205 9.71153 11.4361C9.1066 11.6872 8.4522 11.8135 7.79176 11.8068C7.33271 11.8068 6.8746 11.7046 6.42211 11.4992C5.96963 11.2947 5.64482 11.0137 5.44956 10.6536C5.38103 10.9035 5.28715 11.2645 5.1623 11.7366C5.04214 12.2078 4.9614 12.5119 4.92573 12.6497C4.88818 12.7867 4.81871 13.0152 4.71733 13.3317C4.64857 13.5658 4.56036 13.7945 4.45353 14.0154L4.1306 14.6147C3.99094 14.8719 3.83482 15.1207 3.6631 15.3598C3.49318 15.5928 3.2829 15.8711 3.03225 16.1912L2.89238 16.2383L2.79944 16.1423C2.69899 15.1349 2.64736 14.532 2.64736 14.3329C2.64736 13.7434 2.72152 13.0819 2.86797 12.3474C3.0116 11.6139 3.23878 10.6919 3.54388 9.5831C3.84897 8.47524 4.02358 7.8235 4.07052 7.63056C3.85554 7.21533 3.74665 6.67296 3.74665 6.00611C3.74665 5.47352 3.9222 4.97471 4.27423 4.50525C4.6272 4.03756 5.07312 3.80372 5.61384 3.80372C6.02783 3.80372 6.34889 3.93353 6.57889 4.19405C6.80982 4.45368 6.92247 4.78088 6.92247 5.1801C6.92247 5.60333 6.77415 6.21594 6.47562 7.01706C6.1771 7.81906 6.02877 8.41744 6.02877 8.81489C6.02877 9.21767 6.18085 9.55465 6.48501 9.81872C6.78517 10.0829 7.18213 10.2261 7.59181 10.2179C7.96356 10.2179 8.30808 10.1379 8.6282 9.97699C8.94331 9.82077 9.21607 9.59773 9.4252 9.32525C9.88071 8.73335 10.2054 8.06048 10.3799 7.34692C10.47 6.97171 10.5395 6.61517 10.5827 6.27996C10.6287 5.94298 10.6484 5.62467 10.6484 5.32236C10.6484 4.21361 10.2767 3.34937 9.53786 2.73053C8.7953 2.11169 7.82837 1.80405 6.63897 1.80405C5.28621 1.80405 4.15501 2.21839 3.24911 3.04973C2.34226 3.87841 1.88603 4.93203 1.88603 6.20972C1.88603 6.49158 1.93109 6.76365 2.01652 7.02684C2.10006 7.28913 2.19112 7.49808 2.28969 7.65279C2.38732 7.80483 2.47932 7.95332 2.56287 8.09024C2.64736 8.22717 2.69148 8.32497 2.69148 8.38366C2.69148 8.56326 2.64173 8.7971 2.54128 9.08607C2.43708 9.37504 2.3141 9.51908 2.16578 9.51908C2.1517 9.51908 2.09349 9.5093 1.99211 9.48885C1.64098 9.38956 1.32388 9.20396 1.07306 8.95092C0.806865 8.68868 0.596786 8.3801 0.454419 8.04223C0.312458 7.70556 0.201888 7.35776 0.123976 7.00283C0.0397989 6.66698 -0.0018001 6.32283 5.97005e-05 5.97766Z" fill="white"/>
</svg>
