<svg width="15" height="17" viewBox="0 0 15 17" fill="none" xmlns="http://www.w3.org/2000/svg">
<path d="M14.1294 6.79958C12.7532 6.80288 11.4108 6.37378 10.2918 5.57278V11.1592C10.2915 12.1939 9.97517 13.2037 9.38537 14.0538C8.79547 14.9039 7.96027 15.5537 6.99117 15.9162C6.02207 16.2787 4.96547 16.3368 3.96247 16.0826C2.95957 15.8283 2.05807 15.274 1.37867 14.4936C0.699266 13.7133 0.274366 12.7441 0.160666 11.7157C0.0469656 10.6873 0.249866 9.64868 0.742366 8.73878C1.23487 7.82878 1.99347 7.09098 2.91667 6.62378C3.83987 6.15658 4.88367 5.98238 5.90847 6.12448V8.93428C5.43957 8.78668 4.93597 8.79118 4.46967 8.94688C4.00337 9.10268 3.59817 9.40178 3.31197 9.80158C3.02587 10.2014 2.87337 10.6814 2.87617 11.173C2.87907 11.6646 3.03727 12.1427 3.32817 12.5391C3.61897 12.9355 4.02767 13.2298 4.49577 13.3801C4.96387 13.5304 5.46747 13.5289 5.93467 13.3758C6.40187 13.2228 6.80877 12.9261 7.09727 12.528C7.38577 12.1299 7.54117 11.6508 7.54107 11.1592V0.238281H10.2918C10.2899 0.470581 10.3094 0.702581 10.35 0.931281C10.4456 1.44188 10.6443 1.92758 10.934 2.35878C11.2238 2.78988 11.5984 3.15738 12.0351 3.43878C12.6563 3.84958 13.3846 4.06848 14.1294 4.06828V6.79958Z" fill="white"/>
</svg>
