<svg width="18" height="19" viewBox="0 0 18 19" fill="none" xmlns="http://www.w3.org/2000/svg">
<g clip-path="url(#clip0_9994_901)">
<path d="M9.00028 18.2451C13.9683 18.2451 17.9957 14.2124 17.9957 9.23781C17.9957 4.26319 13.9683 0.230469 9.00028 0.230469C4.03226 0.230469 0.00488281 4.26319 0.00488281 9.23781C0.00488281 14.2124 4.03226 18.2451 9.00028 18.2451Z" fill="white"/>
<path d="M3.45874 4.01953L7.75843 9.77616L3.43164 14.4566H4.4055L8.19369 10.3587L11.2543 14.4566H14.5682L10.0265 8.37621L14.0539 4.01953H13.08L9.59141 7.79347L6.77261 4.01953H3.45874ZM4.89085 4.73775H6.41322L13.1359 13.7384H11.6135L4.89085 4.73775Z" fill="#111111"/>
</g>
<defs>
<clipPath id="clip0_9994_901">
<rect width="18" height="18" fill="white" transform="translate(0 0.238281)"/>
</clipPath>
</defs>
</svg>
