<svg width="17" height="13" viewBox="0 0 17 13" fill="none" xmlns="http://www.w3.org/2000/svg">
<path d="M16.8545 2.92058C16.8545 2.77938 16.6328 1.64998 16.1153 1.15588C15.45 0.450081 14.7108 0.379481 14.3411 0.379481H14.2672C11.9756 0.238281 8.5751 0.238281 8.5012 0.238281C8.5012 0.238281 5.0268 0.238281 2.7352 0.379481H2.6612C2.2916 0.379481 1.5524 0.450081 0.8871 1.15588C0.3696 1.72058 0.1478 2.84998 0.1478 2.99118C0.1478 3.06178 0 4.33238 0 5.67348V6.87348C0 8.21468 0.1478 9.48518 0.1478 9.55578C0.1478 9.69698 0.3696 10.8264 0.8871 11.3205C1.4785 11.9558 2.2177 12.0264 2.6612 12.097C2.7352 12.097 2.8091 12.097 2.883 12.097C4.2136 12.2381 8.2794 12.2381 8.4273 12.2381C8.4273 12.2381 11.9017 12.2381 14.1933 12.097H14.2672C14.6368 12.0264 15.3761 11.9558 16.0414 11.3205C16.5588 10.7558 16.7806 9.62638 16.7806 9.48518C16.7806 9.41458 16.9285 8.14408 16.9285 6.80288V5.60288C17.0024 4.33238 16.8545 2.99118 16.8545 2.92058ZM11.3842 6.37938L6.9488 8.63818C6.8749 8.63818 6.8749 8.70878 6.801 8.70878C6.727 8.70878 6.6531 8.70878 6.6531 8.63818C6.5792 8.56758 6.5053 8.49698 6.5053 8.35578V3.76768C6.5053 3.62648 6.5792 3.55588 6.6531 3.48528C6.727 3.41468 6.8749 3.41468 7.0227 3.48528L11.4581 5.74408C11.606 5.81468 11.6799 5.88528 11.6799 6.02648C11.6799 6.16758 11.5321 6.30878 11.3842 6.37938Z" fill="white"/>
</svg>
