<svg width="861" height="746" viewBox="0 0 861 746" fill="none" xmlns="http://www.w3.org/2000/svg">
<path d="M111.221 370.015C134.926 427.473 213.816 524.788 253 560C267.959 573.443 387.111 682.995 441.448 688.968" stroke="#035BBB" stroke-width="113"/>
<path d="M647.986 333.055C548.459 214.182 283.242 6.49004 137.971 71.3494C-43.6167 152.424 131.295 406.947 158.794 450.637" stroke="url(#paint0_linear_48_14264)" stroke-width="113"/>
<path d="M216.957 343.507C312.977 221.782 572.026 6.4466 719.126 67.0431C903 142.789 735.584 402.304 709.37 446.776" stroke="url(#paint1_linear_48_14264)" stroke-width="113"/>
<path d="M755.234 365.939C732.218 423.676 654.761 523.323 616 559C601.202 572.621 483.104 682.192 428.841 688.815" stroke="url(#paint2_linear_48_14264)" stroke-width="113"/>
<defs>
<linearGradient id="paint0_linear_48_14264" x1="660.372" y1="366.843" x2="209.182" y2="391.869" gradientUnits="userSpaceOnUse">
<stop stop-color="#011328" stop-opacity="0"/>
<stop offset="1" stop-color="#035BBB"/>
</linearGradient>
<linearGradient id="paint1_linear_48_14264" x1="205.562" y1="377.641" x2="654.955" y2="383.084" gradientUnits="userSpaceOnUse">
<stop stop-color="#2B2400" stop-opacity="0"/>
<stop offset="1" stop-color="#FED600"/>
</linearGradient>
<linearGradient id="paint2_linear_48_14264" x1="481.313" y1="676.127" x2="714.596" y2="386.495" gradientUnits="userSpaceOnUse">
<stop stop-color="#035BBB"/>
<stop offset="1" stop-color="#FED600"/>
</linearGradient>
</defs>
</svg>
