<svg xmlns="http://www.w3.org/2000/svg" width="251" height="33" fill="none"><path fill="#DC296C" fill-rule="evenodd" d="M140.79.778c-25.06 1.76-41.724 3.761-68.157 8.243-27.55 4.642-44.087 8.203-53.186 11.524C10.54 23.746 1.41 29.43.133 32.51c-.234.56-.16.64.224.24 3.288-3.561 15.962-7.803 44.693-14.966C70.685 11.382 108.93 5.1 136.002 2.78c29.338-2.481 67.264-2.401 99.922.2 7.534.64 11.141 1.16 11.971 1.8.639.52-1.692.48-17.718-.2-31.796-1.36-59.41-.52-89.067 2.841-25.699 2.882-40.799 5.082-67.04 9.804-21.71 3.922-27.775 5.402-27.775 6.763 0 1.36 2.81 1.08 19.474-1.841 29.05-5.082 46.577-7.203 78.214-9.404 9.577-.64 43.257-.92 51.525-.4 8.3.52 14.877 1.36 19.059 2.441 4.309 1.12 4.692 1.24 4.373 1.64-.574.721-4.788 1.561-7.885 1.561-3.097 0-52.387 3.362-55.739 3.802-.958.12-7.854.4-15.324.6-12.195.32-33.265 1.72-42.14 2.801-8.268 1-18.196 2.521-19.92 3.001-1.852.56-2.362.84-2.043 1.2.064.12 5.81-.32 12.737-1 33.616-3.16 45.62-4.001 63.338-4.401 17.015-.36 25.922-.04 58.74 2.2 14.398 1 15.451 1 8.779.2-12.61-1.56-25.284-2.76-34.223-3.24-5.044-.28-9.098-.6-9.034-.68.096-.121 5.363-.521 11.716-.921 6.385-.4 14.908-.92 18.931-1.16 4.054-.24 8.332-.721 9.513-1.001 2.969-.76 5.587-2.841 4.821-3.802-.479-.6-10.791-2.68-16.728-3.36-9.578-1.121-20.687-1.561-38.628-1.481-25.061.08-49.099 1.64-74.224 4.881-3.32.4-6.32.76-6.704.72-1.692-.12 18.452-3.2 32.244-4.961C150.048 7.26 173.512 5.7 197.615 6.14c7.917.16 17.111.44 20.431.64 13.44.8 27.87 1.32 29.594 1.04 1.309-.2 2.011-.56 2.65-1.32.446-.6.766-1.24.702-1.48-.224-.84-3.352-1.801-7.279-2.201C236.435 2.059 218.876.978 204 .378c-16.186-.64-51.206-.44-63.21.4ZM83.742 16.664c-.32.08-.894.08-1.277 0-.415-.08-.16-.16.543-.16.702-.04 1.021.04.734.16Zm-2.713.4c-.224.08-.67.08-.958 0-.32-.12-.128-.2.383-.2.543 0 .766.08.575.2Z" clip-rule="evenodd"/></svg>
