<svg viewBox="0 0 81 65" fill="none" xmlns="http://www.w3.org/2000/svg"><path fill-rule="evenodd" clip-rule="evenodd" d="M40.435 0 0 14.331v24.754l40.435-14.331 40.437 14.331V14.331L40.435 0Z" fill="#fff"/><path d="M3.723 55.04 0 64.238h1.949l.794-2.05h3.673l.794 2.05h1.998L5.485 55.04H3.723Zm-.299 5.372 1.155-2.961 1.154 2.96H3.424Z" fill="#fff"/><path fill-rule="evenodd" clip-rule="evenodd" d="m21.519 60.702-4.162-5.662h-1.802v9.198h1.928v-5.85l4.303 5.85h1.662V55.04h-1.93v5.662Z" fill="#fff"/><path d="m33.635 55.04-3.722 9.198h1.95l.793-2.05h3.673l.795 2.05h1.997L35.4 55.04h-1.764Zm-.296 5.372 1.152-2.961 1.155 2.96h-2.307ZM47.612 55.04h-3.34v9.198h3.34c2.692 0 4.552-2.011 4.552-4.601 0-2.612-1.86-4.597-4.552-4.597Zm0 7.37h-1.458v-5.545h1.458c1.543 0 2.582 1.144 2.582 2.772 0 1.656-1.04 2.773-2.582 2.773Z" fill="#fff"/><path fill-rule="evenodd" clip-rule="evenodd" d="M60.518 60.506h4.07v-1.798h-4.07v-1.866h4.627V55.04H58.63v9.198h6.577v-1.8h-4.689v-1.932Z" fill="#fff"/><path d="M77.277 55.04h-1.761l-3.725 9.198h1.948l.796-2.05h3.672l.797 2.05h1.995l-3.722-9.198Zm-2.06 5.372 1.152-2.961 1.154 2.96h-2.306Z" fill="#fff"/></svg>
