<svg xmlns="http://www.w3.org/2000/svg" width="93" height="11" fill="none"><path fill-rule="evenodd" clip-rule="evenodd" d="M0 10.737 4.27.19h2.02l4.269 10.547H8.268l-.91-2.35H3.144l-.91 2.35H0Zm5.25-7.783L3.926 6.35h2.648L5.25 2.954ZM24.675 6.682 19.903.19h-2.067v10.547h2.212V4.03l4.934 6.707h1.905V.19h-2.212v6.492ZM34.3 10.737 38.57.19h2.022l4.268 10.547h-2.29l-.912-2.35h-4.211l-.91 2.35H34.3Zm5.25-7.783L38.229 6.35h2.645L39.55 2.954ZM50.765.19h3.83c3.087 0 5.22 2.276 5.22 5.271 0 2.97-2.133 5.276-5.22 5.276h-3.83V.19Zm2.158 8.45h1.672c1.77 0 2.962-1.28 2.962-3.179 0-1.866-1.193-3.178-2.962-3.178h-1.672v6.358ZM69.394 6.457h4.668V4.395h-4.668v-2.14H74.7V.19h-7.47v10.547h7.542V8.673h-5.377V6.457ZM86.593.19h2.02l4.267 10.547h-2.288l-.914-2.35h-4.21l-.913 2.35H82.32L86.593.19Zm.978 2.764L86.249 6.35h2.645L87.57 2.954Z" fill="#fff"/></svg>
