<svg width="81" height="65" viewBox="0 0 81 65" fill="none" xmlns="http://www.w3.org/2000/svg">
<path fill-rule="evenodd" clip-rule="evenodd" d="M40.4353 0L0 14.3313V39.085L40.4353 24.7537L80.872 39.085V14.3313L40.4353 0Z" fill="white"/>
<path d="M3.72305 55.041L0 64.2387H1.9487L2.74267 62.1897H6.4161L7.21006 64.2387H9.20838L5.48533 55.041H3.72305ZM3.42397 60.4123L4.57871 57.4514L5.73345 60.4123H3.42397Z" fill="white"/>
<path fill-rule="evenodd" clip-rule="evenodd" d="M21.5189 60.7027L17.3571 55.041H15.5547V64.2387H17.4833V58.3895L21.7864 64.2387H23.4476V55.041H21.5189V60.7027Z" fill="white"/>
<path d="M33.6351 55.041L29.9128 64.2387H31.8618L32.6559 62.1897H36.3285L37.124 64.2387H39.1212L35.399 55.041H33.6351ZM33.3387 60.4123L34.4909 57.4514L35.6458 60.4123H33.3387Z" fill="white"/>
<path d="M47.612 55.041H44.2715V64.2387H47.612C50.3043 64.2387 52.1644 62.2274 52.1644 59.6378C52.1644 57.0256 50.3043 55.041 47.612 55.041ZM47.612 62.4108H46.1541V56.8662H47.612C49.1546 56.8662 50.1945 58.0101 50.1945 59.6378C50.1945 61.2937 49.1546 62.4108 47.612 62.4108Z" fill="white"/>
<path fill-rule="evenodd" clip-rule="evenodd" d="M60.518 60.5066H64.5883V58.7083H60.518V56.8422H65.1444V55.041H58.6296V64.2387H65.2071V62.439H60.518V60.5066Z" fill="white"/>
<path d="M77.2771 55.041H75.516L71.791 64.2387H73.7387L74.5354 62.1897H78.2067L79.0035 64.2387H80.9994L77.2771 55.041ZM75.2168 60.4123L76.3691 57.4514L77.5226 60.4123H75.2168Z" fill="white"/>
</svg>
