<svg xmlns="http://www.w3.org/2000/svg" width="93" height="11" viewBox="0 0 93 11" fill="none">
<path fill-rule="evenodd" clip-rule="evenodd" d="M0 10.7369L4.26911 0.190186H6.28987L10.559 10.7369H8.26756L7.35715 8.38732H3.14493L2.23452 10.7369H0ZM5.2502 2.95435L3.9261 6.34948H6.5743L5.2502 2.95435Z" fill="white"/>
<path fill-rule="evenodd" clip-rule="evenodd" d="M24.6752 6.68223L19.903 0.190186H17.8362V10.7369H20.0477V4.02978L24.9819 10.7369H26.8867V0.190186H24.6752V6.68223Z" fill="white"/>
<path fill-rule="evenodd" clip-rule="evenodd" d="M34.3005 10.7369L38.5687 0.190186H40.5913L44.8595 10.7369H42.5693L41.6572 8.38732H37.4459L36.5354 10.7369H34.3005ZM39.5499 2.95435L38.2287 6.34948H40.8742L39.5499 2.95435Z" fill="white"/>
<path fill-rule="evenodd" clip-rule="evenodd" d="M50.7648 0.190186H54.5953C57.6824 0.190186 59.8153 2.4658 59.8153 5.46113C59.8153 8.43059 57.6824 10.7369 54.5953 10.7369H50.7648V0.190186ZM52.9235 8.64082H54.5953C56.3641 8.64082 57.5565 7.35988 57.5565 5.46111C57.5565 3.59469 56.3641 2.28302 54.5953 2.28302H52.9235V8.64082Z" fill="white"/>
<path fill-rule="evenodd" clip-rule="evenodd" d="M69.3944 6.45742H74.0616V4.3953H69.3944V2.25554H74.6993V0.190186H67.229V10.7369H74.7711V8.67319H69.3944V6.45742Z" fill="white"/>
<path fill-rule="evenodd" clip-rule="evenodd" d="M86.5926 0.190186H88.6121L92.8803 10.7369H90.5916L89.678 8.38732H85.4682L84.5546 10.7369H82.3213L86.5926 0.190186ZM87.5707 2.95435L86.2495 6.34948H88.8935L87.5707 2.95435Z" fill="white"/>
</svg>
