<svg width="46" height="44" fill="none" xmlns="http://www.w3.org/2000/svg"><path d="M11.324 15.858h-1.02l-1.832 4.747h1.015l.389-1.078h1.895l.414 1.084h1.04l-1.901-4.753Zm-1.161 2.871.638-1.767.65 1.76-1.288.007Zm4.912 1.87.938-3.541.944 3.54h1.02l1.15-4.74h-.97l-.728 3.311-.83-3.317h-1.135l-.867 3.254-.715-3.254H12.9l1.135 4.753 1.04-.006Zm6.546-4.74h-1.008l-1.857 4.746h1.021l.383-1.078h1.914l.414 1.084h1.04l-1.907-4.753Zm-1.149 2.87.638-1.767.651 1.76-1.289.007Zm4.517 1.87V18.62h.192c.163-.006.327.013.484.057.11.04.208.106.288.192.182.223.35.457.503.701l.69 1.028h1.148l-.574-.92a5.412 5.412 0 0 0-.549-.765 2.234 2.234 0 0 0-.51-.402c.416-.06.73-.206.938-.44.211-.243.323-.558.312-.88a1.365 1.365 0 0 0-.21-.747 1.084 1.084 0 0 0-.55-.459c-.229-.085-.597-.128-1.103-.128h-2.016v4.747l.957-.006Zm0-3.937h.747c.387 0 .62.005.701.013.138.02.265.087.358.191a.574.574 0 0 1 .127.383.619.619 0 0 1-.096.358.511.511 0 0 1-.267.197c-.115.043-.402.064-.862.064h-.708v-1.206Zm3.822 3.937h1.799c.286.008.572-.027.848-.102.25-.073.479-.201.67-.377.234-.234.409-.52.51-.836.102-.326.15-.666.14-1.008a3.5 3.5 0 0 0-.152-1.122 2.074 2.074 0 0 0-.453-.766 1.589 1.589 0 0 0-.715-.434c-.208-.064-.51-.096-.906-.096h-1.741v4.74Zm1.384-3.937c.391 0 .653.015.785.045a.912.912 0 0 1 .446.223c.126.129.218.287.268.46.068.195.102.476.102.842.008.294-.026.589-.102.874-.064.212-.149.363-.255.453a.88.88 0 0 1-.383.197c-.189.037-.382.051-.574.045h-.714v-3.139h.427Zm3.732 3.605c.323.276.785.415 1.385.415.408 0 .75-.058 1.027-.173.262-.105.485-.29.638-.53a1.494 1.494 0 0 0 .038-1.518 1.333 1.333 0 0 0-.523-.478c-.221-.12-.566-.234-1.034-.345-.468-.11-.761-.216-.88-.319a.365.365 0 0 1-.14-.28.344.344 0 0 1 .153-.294c.157-.115.374-.172.65-.172.277 0 .479.053.606.16.132.106.221.28.268.523l.957-.039c-.017-.438-.176-.787-.478-1.046-.302-.26-.749-.39-1.34-.39a2.373 2.373 0 0 0-.931.16c-.243.098-.45.267-.594.485-.133.2-.204.436-.204.677a1.231 1.231 0 0 0 .434.956c.208.183.57.339 1.084.466.396.102.651.172.766.21a.791.791 0 0 1 .338.205c.068.08.104.182.102.287a.58.58 0 0 1-.236.447c-.157.131-.391.197-.701.197-.285 0-.515-.072-.69-.217-.174-.144-.287-.374-.338-.689l-.931.09c.06.531.25.935.574 1.212Zm-24.523 3.35a.428.428 0 0 1 .255-.065c.153 0 .26.024.319.07a.305.305 0 0 1 .076.25v.063a3.258 3.258 0 0 1-.574.14 1.996 1.996 0 0 0-.478.14.594.594 0 0 0-.255.23.638.638 0 0 0-.09.339.625.625 0 0 0 .198.478.77.77 0 0 0 .549.191c.129.001.257-.025.376-.076.121-.054.232-.13.325-.223l.02.07.063.178h.587a1.276 1.276 0 0 1-.108-.3 2.428 2.428 0 0 1-.026-.44v-.701c0-.255-.025-.432-.076-.53a.593.593 0 0 0-.275-.242c-.127-.06-.325-.09-.593-.09-.298 0-.519.051-.663.154a.842.842 0 0 0-.32.484l.543.096a.434.434 0 0 1 .147-.217Zm.657.822c.004.099-.005.197-.026.294a.377.377 0 0 1-.14.191c-.09.07-.2.108-.313.108a.326.326 0 0 1-.307-.187.294.294 0 0 1-.024-.119.25.25 0 0 1 .12-.21c.101-.05.209-.085.32-.102.125-.026.248-.058.37-.096v.121Zm2.788-1.167c-.162-.115-.379-.173-.651-.173-.34 0-.608.102-.804.307-.196.204-.293.495-.293.874 0 .365.097.652.293.86.196.21.46.316.791.32.29 0 .521-.07.696-.21.184-.158.308-.375.35-.613l-.586-.096c-.03.158-.081.268-.154.332a.401.401 0 0 1-.28.096.446.446 0 0 1-.364-.166c-.085-.11-.127-.3-.127-.568 0-.242.042-.413.127-.51a.446.446 0 0 1 .357-.16c.1-.005.197.027.275.09a.427.427 0 0 1 .127.267l.594-.108a.983.983 0 0 0-.351-.542Zm.803-.983v3.113h.594v-1.129a1.3 1.3 0 0 1 .057-.434.415.415 0 0 1 .166-.216.498.498 0 0 1 .268-.07.383.383 0 0 1 .217.057.294.294 0 0 1 .121.146c.021.064.032.215.032.453v1.194h.593v-1.321a2.366 2.366 0 0 0-.025-.447.708.708 0 0 0-.115-.268.606.606 0 0 0-.255-.191.893.893 0 0 0-1.06.255V22.29h-.592Zm3.254.555v-.555h-.6v.555h.6Zm0 2.558v-2.245h-.6v2.252l.6-.006Zm1.774-.472a.363.363 0 0 1-.236.077.447.447 0 0 1-.345-.147.606.606 0 0 1-.147-.415h1.493c.009-.455-.083-.795-.274-1.02-.191-.226-.457-.336-.797-.332a.963.963 0 0 0-.74.319c-.196.213-.294.506-.294.88 0 .315.074.575.223.779.192.255.483.382.874.382.22.008.435-.052.62-.172a.976.976 0 0 0 .363-.497l-.6-.102a.472.472 0 0 1-.14.255v-.007Zm-.715-.848a.548.548 0 0 1 .128-.383.433.433 0 0 1 .638-.013c.09.112.136.253.127.396h-.893Zm3.126 1.32.893-2.258h-.612l-.427 1.148-.064.192-.064.191-.128-.383-.42-1.148h-.626l.906 2.259h.542Zm2.424-.472a.363.363 0 0 1-.236.077.447.447 0 0 1-.344-.147.606.606 0 0 1-.14-.415h1.492c.009-.455-.082-.795-.274-1.02-.191-.226-.457-.336-.797-.332a.963.963 0 0 0-.74.319c-.196.213-.294.506-.294.88-.01.275.068.546.223.772.188.256.477.383.868.383.218.01.434-.048.619-.166a.976.976 0 0 0 .364-.497l-.594-.102a.472.472 0 0 1-.146.255v-.007Zm-.714-.848a.548.548 0 0 1 .128-.383.435.435 0 0 1 .638-.013c.09.112.136.253.127.396h-.893Zm1.927 1.32h.6v-1.097a1.597 1.597 0 0 1 .05-.466.408.408 0 0 1 .409-.287.313.313 0 0 1 .178.045c.047.037.081.089.096.147.028.138.039.28.032.42v1.238h.6v-1.084a1.61 1.61 0 0 1 .05-.466.428.428 0 0 1 .16-.223.409.409 0 0 1 .236-.077.282.282 0 0 1 .255.128c.043.064.064.208.064.434v1.288h.593v-1.441a1.282 1.282 0 0 0-.063-.466.618.618 0 0 0-.256-.3.817.817 0 0 0-.42-.102.785.785 0 0 0-.364.09 1.04 1.04 0 0 0-.32.274.683.683 0 0 0-.26-.275.76.76 0 0 0-.384-.089c-.268 0-.502.121-.701.364v-.313h-.543l-.012 2.259Zm5.078-.472a.363.363 0 0 1-.236.077.448.448 0 0 1-.345-.147.606.606 0 0 1-.146-.415h1.499c.008-.455-.085-.795-.28-1.02-.197-.226-.46-.336-.792-.332a.965.965 0 0 0-.746.319c-.196.213-.294.506-.294.88-.01.275.068.546.223.772.192.256.483.383.874.383.219.01.435-.048.62-.166a.976.976 0 0 0 .363-.497l-.593-.102a.472.472 0 0 1-.147.255v-.007Zm-.715-.848a.549.549 0 0 1 .128-.383.434.434 0 0 1 .612-.03l.02.017c.092.11.14.252.134.396h-.894Zm4.02-.083a1.868 1.868 0 0 0-.032-.402.658.658 0 0 0-.115-.255.607.607 0 0 0-.249-.172.925.925 0 0 0-1.104.306v-.32h-.555v2.253h.6v-1.02c0-.256.015-.428.045-.518a.427.427 0 0 1 .165-.223.478.478 0 0 1 .281-.09c.073 0 .144.023.204.064.06.04.104.099.128.166.025.068.038.226.038.473v1.148h.593v-1.41Zm1.23-.855v-.791l-.593.345v.446h-.274v.479h.275v.982c-.004.14.002.281.019.421.01.082.038.16.082.23.05.064.116.112.192.14a.747.747 0 0 0 .287.057c.162.003.322-.027.472-.089l-.05-.466a.774.774 0 0 1-.237.064.166.166 0 0 1-.102-.032.128.128 0 0 1-.051-.076 2.266 2.266 0 0 1-.013-.32v-.912h.409v-.478h-.415Zm.964 2.118c.183.128.428.191.734.191.34 0 .595-.074.765-.223a.683.683 0 0 0 .255-.536.555.555 0 0 0-.184-.446c-.128-.102-.35-.19-.664-.262-.315-.072-.502-.127-.561-.166a.128.128 0 0 1-.064-.108.14.14 0 0 1 .076-.121.65.65 0 0 1 .332-.064.504.504 0 0 1 .294.07c.067.05.115.122.134.204l.561-.108a.766.766 0 0 0-.306-.447c-.153-.098-.383-.147-.69-.147-.323 0-.563.066-.72.198a.623.623 0 0 0-.23.491.58.58 0 0 0 .268.51c.128.09.432.188.912.294a.48.48 0 0 1 .205.077.16.16 0 0 1 .038.115.192.192 0 0 1-.077.16.593.593 0 0 1-.35.082.523.523 0 0 1-.32-.09.44.44 0 0 1-.16-.267l-.599.096a.862.862 0 0 0 .351.503v-.006ZM36.62 4.394l-.05-1.799.548.65c1.423 1.672 1.818 2.412 1.927 3.599.063.702-.083 1.722-.268 1.927a.108.108 0 0 1-.077.038c-.083 0-.51-.383-.72-.58a4.829 4.829 0 0 1-.964-1.353c-.32-.696-.364-.95-.402-2.488l.006.006Zm.109 36.281c-1.978-.433-4.058-.765-4.849-.765-.855 0-2.533.357-3.037.65a.109.109 0 0 0-.057.103c.02.23.785.72 1.576 1.014.504.185 1.04.255 1.907.262h.077c.995 0 1.41-.083 2.973-.556 1.372-.414 1.614-.504 1.608-.605 0-.052-.07-.077-.192-.103h-.006Zm4.127-27.573a.217.217 0 0 0 .16.102c.077 0 .153-.076.255-.204.42-.676.677-1.44.753-2.232 0-.62-.542-2.616-1.104-4.096a.064.064 0 0 0-.057-.045c-.09 0-.249.3-.472.893-.358.938-.402 1.212-.409 2.501-.006 1.34.02 1.506.364 2.175.154.312.324.614.51.906ZM38.75 36.12c-1.735.147-2.922.517-3.974 1.238-.747.504-1.028.766-1.04.963a.237.237 0 0 0 .095.192c.109.095.447.217.753.28.332.068.67.102 1.008.102.766 0 1.531-.19 2.546-.606.619-.255 3.26-1.977 3.406-2.22a.058.058 0 0 0 0-.064c-.05-.083-.478-.083-2.787.115h-.007Zm5.257-5.843c-.41.131-.828.242-1.25.331-1.04.224-2.77 1.149-3.618 1.959a6.027 6.027 0 0 0-.306.319 20.506 20.506 0 0 0 1.857-3.407c.006.043.029.082.063.108a.223.223 0 0 0 .128.032c.14 0 .383-.07.816-.236a5.155 5.155 0 0 0 2.304-1.703c.402-.555 2.073-3.828 1.996-3.98a.038.038 0 0 0-.038-.026c-.108 0-1.85 1.122-2.724 1.722-.709.454-1.3 1.071-1.722 1.8a20.86 20.86 0 0 0 .682-3.242l.013.007a.18.18 0 0 0 .096.025c.153 0 .401-.14.86-.42 1.168-.715 1.908-2.132 2.253-4.326.102-.625.236-1.283.306-1.468.051-.134.083-.3.038-.357a.064.064 0 0 0-.044-.032c-.224 0-2.163 2.055-2.59 2.692a5.57 5.57 0 0 0-.76 1.583l.007-.434c0-1.008-.073-2.014-.217-3.011.057.076.128.16.172.16.274 0 .944-.588 1.18-1.022.555-1.033.696-2.31.504-4.548l-.12-1.372-.607.97a21.419 21.419 0 0 0-.976 1.735c-.39.804-.415.95-.415 2.24v.401a20.692 20.692 0 0 0-2.118-5.678A20.161 20.161 0 0 0 35 5.34a.51.51 0 0 0 .127.025c.011 0 .022-.003.032-.006a.152.152 0 0 0 .09-.083c.14-.256.146-1.021.013-1.48-.205-.702-1.328-1.965-2.361-2.648-.95-.638-.995-.587-1.008-.574-.108.102.39 1.786.593 2.245.261.502.592.963.983 1.372l-.51-.332h-.013a39.89 39.89 0 0 1-1.614-.893l-.045-.019v-.064c0-.944-.957-1.926-2.214-2.296L27.637.158c-.192-.064-.645-.198-.696-.147a.05.05 0 0 0-.012.039c.012.217 1.365 1.914 1.837 2.296.33.257.696.465 1.085.62.279.097.567.166.86.203l1.66 1.149a5.092 5.092 0 0 0-1.5-.096c-.797.083-2.654.638-2.87.861a.045.045 0 0 0-.013.02.046.046 0 0 0 0 .025c.038.115.829.191.989.21.58.051 1.403.147 1.824.205.424.047.85.069 1.276.063.766 0 1.55-.05 1.773-.14a.806.806 0 0 0 .109-.051c.51.385 1 .796 1.467 1.231a7.336 7.336 0 0 0-2.577-.383h-.026c-1.16 0-1.333.096-1.346.192-.012.076.096.153.37.255.262.096 1.021.447 1.69.766.67.319 1.564.67 1.991.759.484.095.975.153 1.468.172h.102c.153.187.304.379.453.574.297.383.582.778.855 1.187a6.46 6.46 0 0 0-1.225-.69c-.83-.356-2.552-.848-2.699-.695l-.013.013v.013c.274.298.572.571.893.817l1.621 1.34c.708.599 2.054 1.422 2.514 1.543l.255.064c.337.726.631 1.472.88 2.233a6.73 6.73 0 0 0-2.462-1.978c-.192-.115-1.213-.65-1.308-.587a.038.038 0 0 0-.02.032c0 .09.256.402.428.587.466.504 1.104 1.448 1.486 2.195a8.423 8.423 0 0 0 2.125 2.175c.142.103.292.197.447.28.186 1.001.3 2.014.338 3.031a6.704 6.704 0 0 0-.224-.733c-.293-.81-.49-1.091-1.314-1.914a91.66 91.66 0 0 1-1.276-1.29l-.319-.325-.05.032.089.326c.925 3.24 1.486 4.536 2.526 5.799.287.35.415.504.51.536a21.4 21.4 0 0 1-.115 1.052 23.986 23.986 0 0 1-.319 1.774 5.486 5.486 0 0 0-.287-1.518c-.21-.6-1.684-3.158-1.888-3.203a.045.045 0 0 0-.045.013c-.108.127.224 4.478.332 4.931.198.781.53 1.522.983 2.188l.127.14a19.977 19.977 0 0 1-1.32 2.808c.15-.88.152-1.78.006-2.66-.21-1.225-.587-2.533-.83-2.533-.089.006-.127.153-.127.466 0 .191-.179 1.052-.39 1.913-.605 2.47-.624 3.343-.101 4.696l.076.204a19.59 19.59 0 0 1-1.55 1.837c.262-.803.402-2.309.306-3.502l-.102-1.212-.612 1.18c-.26.508-.543 1.004-.849 1.486-.682.977-.893 1.672-.97 3.095l-.044.963c-.213.162-.43.32-.65.472-.453.317-.922.611-1.404.88.65-.893 1.148-2.111 1.352-3.45l.121-.767-.848.81c-2.425 2.323-3.094 3.229-3.248 4.384l-.025.236c-.709.257-1.433.47-2.17.638.78-.51 1.979-2.087 2.17-2.871l.096-.408-.69.344c-.47.222-.954.418-1.448.587a6.568 6.568 0 0 0-1.3.606c-.613.415-1.526 1.582-1.526 1.946a.268.268 0 0 0 .051.191c-.804.063-1.612.071-2.418.026l-.19-.472c-.473-1.155-1.213-1.768-2.846-2.335-.488-.17-.965-.368-1.43-.594l-.618-.325.108.376c.256.88 1.455 2.367 2.323 2.999a19.44 19.44 0 0 1-1.008-.255 14.58 14.58 0 0 1-1.334-.409c.005-.106 0-.213-.013-.319-.114-1.02-.472-1.55-2.258-3.362L12.9 34.2l.089.663c.045.32.223 1.047.402 1.627.25.83.604 1.523 1.059 2.08a18.523 18.523 0 0 1-2.201-1.41l.045-.191c.255-1.04-.243-2.846-1.149-4.204-.191-.275-.542-.906-.803-1.41l-.466-.919-.064.013-.038 1.703c-.026.957.019 2.01.102 2.399.072.301.186.591.338.861a19.696 19.696 0 0 1-1.806-2.06c.243-.173.51-1.512.51-2.297 0-.542-.165-1.557-.446-2.705-.242-1.008-.446-2.003-.453-2.22-.006-.236-.013-.294-.064-.306-.05-.013-.082.057-.255.446-.293.65-.765 2.87-.765 3.605 0 .28.102.957.217 1.499l.044.191c-.44-.73-.833-1.489-1.174-2.27-.131-.303-.259-.611-.382-.926.063 0 .134-.064.223-.14.319-.3.702-1.053.957-1.876.147-.472.408-3.554.427-5.065 0-.064-.032-.083-.05-.09-.275 0-1.698 2.488-1.915 3.254a5.767 5.767 0 0 0-.242 2.06 20.07 20.07 0 0 1-.613-3.572c.026.083.064.147.096.147.153 0 1.353-1.678 1.665-2.252.236-.422.62-1.532 1.244-3.624.102-.332.21-.702.21-.753v-.025l-.018-.007c-.026-.012-.064-.032-1.187 1.072-1.25 1.225-1.646 1.876-2.003 3.311l-.077.364c.006-1.22.12-2.437.338-3.637.006.005.013.01.02.013a.102.102 0 0 0 .044.013c.096 0 .255-.109.613-.364 1-.785 1.85-1.745 2.507-2.832.367-.57.756-1.126 1.167-1.665.25-.307.364-.485.345-.524l-.013-.025h-.025c-.256 0-2.508 1.314-2.973 1.735-.433.385-.81.83-1.117 1.32a19.59 19.59 0 0 1 1.002-2.596h.025c.613 0 2.693-1.289 3.777-2.328.255-.243.76-.67 1.13-.957.408-.32.523-.44.484-.517-.044-.096-.287-.064-1.116.134-1.212.293-2.322.855-3.145 1.537.456-.72.961-1.409 1.512-2.06h.236c1.059 0 2.264-.32 3.38-.887.562-.28 1.296-.619 1.634-.753.453-.172.504-.255.491-.325-.019-.096-.191-.192-1.333-.192-1.187 0-2.06.128-2.8.46a19.33 19.33 0 0 1 1.607-1.34c.173.077.355.132.542.166.37.071.746.105 1.123.102.549 0 1.2-.064 2.048-.179.778-.102 1.62-.191 1.882-.191.05 0 .51 0 .51-.134s-.95-.453-1.142-.517a6.571 6.571 0 0 0-3.617-.249 79.413 79.413 0 0 0 1.576-1.199c.06.003.119.003.178 0 .964 0 1.723-.383 2.68-1.372.702-.727 1.403-1.595 1.276-1.767-.038-.064-.147-.019-.179-.006-.127.05-.638.204-1.129.332-1.984.523-2.66 1.04-2.941 2.27l-.217.141c-.568.357-1.212.778-1.723 1.123a5.487 5.487 0 0 0 1.149-2.45l.255-.982-.344.185c-.154.083-.62.382-1.034.67-1.633 1.129-2.475 2.551-2.188 3.713.019.095.076.293.134.35A19.938 19.938 0 0 0 8.88 7.42c.65-1.002.905-2.31.746-3.822l-.096-.932-.867 1.085a11.732 11.732 0 0 0-1.149 1.697 4.657 4.657 0 0 0-.306 2.781c.045.205.153.58.28.58.084 0 .384-.254.639-.51a20.331 20.331 0 0 0-2.004 3.056c.098-.422.147-.855.147-1.288 0-.791-.09-1.295-.427-2.354l-.466-1.436-.395 1.193c-.977 2.967-1.008 3.917-.173 5.36l.281.497.217-.256a20.789 20.789 0 0 0-.932 2.718 3.5 3.5 0 0 0-.063-.357 8.166 8.166 0 0 0-.957-2.348c-.22-.3-.423-.613-.606-.938-.32-.535-.383-.625-.447-.612-.051.02-.057.102-.057.3 0 .23-.045 1.065-.102 1.863-.16 2.38.242 3.783 1.282 4.42.204.128.338.211.446.224a21.141 21.141 0 0 0-.204 2.884v.032c-.446-.964-1.544-2.584-2.01-2.916a14.358 14.358 0 0 1-.771-.612c-.306-.262-.383-.294-.428-.262-.044.032-.025.077 0 .153.051.134.179.779.287 1.436.377 2.341 1.04 3.674 2.214 4.472.345.23.766.472.893.478.121.945.307 1.881.555 2.801a4.427 4.427 0 0 0-1.167-1.212 24.95 24.95 0 0 1-1.193-.804 23.186 23.186 0 0 0-1.353-.893L0 23.488l.81 1.678c.37.775.773 1.532 1.212 2.272a5.072 5.072 0 0 0 3.241 2.175.191.191 0 0 0 .128-.032c.42.973.914 1.912 1.48 2.807a4.71 4.71 0 0 0-.383-.332 9.51 9.51 0 0 0-3.075-1.441 8.817 8.817 0 0 1-1.2-.332c-.446-.179-.554-.204-.593-.147-.038.058.02.134.288.434.21.236.637.772.95 1.193.574.791 1.901 1.965 2.68 2.38.236.127.778.306 1.212.401.308.073.622.116.938.128.04.004.08.004.12 0 .156-.035.314-.056.473-.064.09 0 .153 0 .185-.05a20.003 20.003 0 0 0 2.705 2.667l-.351-.192-1.034-.523c-.427-.217-5.033-.728-5.237-.575l-.02.007v.019c0 .064.875.689 1.398 1.059 1.403.995 1.799 1.2 3.266 1.659a4.69 4.69 0 0 0 1.378.19 4.336 4.336 0 0 0 1.614-.273l.51-.217-.19-.16a18.838 18.838 0 0 0 3.533 1.889 9.844 9.844 0 0 0-3.936.063 85.67 85.67 0 0 1-2.182.415l-.937.16v.063l.555.16 1.83.555c.858.267 1.75.405 2.648.408 1.276 0 2.412-.3 3.062-.893l.447-.395-.064-.026c.891.277 1.802.486 2.724.625-.347.081-.688.185-1.02.313-.832.366-1.653.756-2.463 1.167-1.978.983-1.978 1.034-1.978 1.06v.018l.013.007c.026.019.147.032.338.032.728 0 2.424-.122 2.96-.198 1.13-.172 2.597-.67 3.203-1.091.328-.25.627-.534.893-.849l.217-.255c.468.018.938.018 1.41 0l.6.575a3.81 3.81 0 0 0 1.913 1.135 9.762 9.762 0 0 0 3.382.619c.848.05 1.601.102 1.69.115h.058a.19.19 0 0 0 .121-.032.063.063 0 0 0 .02-.045c0-.127-1.232-.72-1.558-.816-.172-.051-.516-.236-.765-.409a11.153 11.153 0 0 0-3.343-1.352 19.165 19.165 0 0 0 11.962-7.012.704.704 0 0 0-.096.268c0 .09.287.14.383.154.089.013.178.02.268.019.74 0 1.958-.32 2.488-.683 1.576-1.078 1.984-1.467 2.737-2.616.21-.33.467-.627.765-.88.287-.191.3-.261.281-.306-.019-.032-.057-.109-.65.095h-.007Z" fill="#fff"/></svg>
