<svg width="46" height="44" viewBox="0 0 46 44" fill="none" xmlns="http://www.w3.org/2000/svg">
<path d="M11.3239 15.8585H10.3032L8.47221 20.6049H9.48657L9.87574 19.5268H11.7705L12.1852 20.6113H13.2251L11.3239 15.8585ZM10.1628 18.7293L10.8008 16.9621L11.4515 18.7229L10.1628 18.7293ZM15.0752 20.5986L16.013 17.0578L16.9572 20.5986H17.9779L19.1263 15.8585H18.1566L17.4293 19.1695L16.5999 15.8521H15.4643L14.5967 19.1057L13.8822 15.8521H12.8997L14.0353 20.6049L15.0752 20.5986ZM21.6207 15.8585H20.6127L18.7562 20.6049H19.777L20.1598 19.5268H22.0737L22.4883 20.6113H23.5282L21.6207 15.8585ZM20.4724 18.7293L21.1103 16.9621L21.7611 18.7229L20.4724 18.7293ZM24.9892 20.5986V18.6209H25.1806C25.3442 18.6147 25.5078 18.6341 25.6654 18.6783C25.775 18.7183 25.8734 18.784 25.9525 18.8697C26.1354 19.0925 26.3038 19.3269 26.4565 19.5714L27.1455 20.5986H28.2939L27.7197 19.6799C27.5594 19.4092 27.3758 19.1531 27.171 18.9143C27.0214 18.7562 26.8495 18.6208 26.6607 18.5124C27.0775 18.4529 27.3901 18.3061 27.5985 18.0722C27.8102 17.8288 27.9219 17.5142 27.9111 17.1918C27.9145 16.9279 27.8414 16.6686 27.7005 16.4454C27.5749 16.2346 27.3815 16.0727 27.1519 15.9861C26.9222 15.901 26.5543 15.8585 26.0482 15.8585H24.0322V20.6049L24.9892 20.5986ZM24.9892 16.6623H25.7356C26.1226 16.6623 26.3566 16.6666 26.4374 16.6751C26.5754 16.6944 26.702 16.7623 26.7946 16.8664C26.8821 16.9744 26.9274 17.1104 26.9222 17.2492C26.9275 17.3753 26.8941 17.4999 26.8265 17.6065C26.7618 17.7005 26.6675 17.7701 26.5586 17.8043C26.4437 17.8468 26.1567 17.8681 25.6973 17.8681H24.9892V16.6623ZM28.8106 20.5986H30.6097C30.896 20.6067 31.1819 20.5723 31.4582 20.4965C31.7075 20.4243 31.9367 20.2955 32.128 20.1201C32.3619 19.8858 32.5368 19.5994 32.6384 19.2843C32.7402 18.9583 32.7876 18.6178 32.7788 18.2764C32.7891 17.8962 32.7374 17.517 32.6257 17.1535C32.5318 16.8686 32.3773 16.6074 32.1727 16.388C31.9775 16.1822 31.7308 16.0324 31.4582 15.9542C31.2498 15.8904 30.9478 15.8585 30.5523 15.8585H28.8106V20.5986ZM30.195 16.6623C30.5863 16.6623 30.8478 16.6772 30.9797 16.707C31.1464 16.7384 31.3011 16.8157 31.4263 16.9302C31.5523 17.0587 31.6444 17.2166 31.6942 17.3896C31.7623 17.5852 31.7963 17.8659 31.7963 18.2317C31.8041 18.5264 31.7697 18.8207 31.6942 19.1057C31.6304 19.3184 31.5454 19.4694 31.439 19.5587C31.3298 19.6553 31.1983 19.7232 31.0562 19.7564C30.8671 19.7925 30.6745 19.8074 30.4821 19.8011H29.7676V16.6623H30.195ZM33.9271 20.2668C34.2503 20.5433 34.7118 20.6815 35.3115 20.6815C35.7198 20.6815 36.0622 20.6241 36.3386 20.5092C36.6012 20.4035 36.8243 20.2184 36.9766 19.9797C37.1182 19.7532 37.1965 19.4928 37.2033 19.2258C37.21 18.9587 37.1449 18.6947 37.0149 18.4614C36.8869 18.2576 36.7061 18.0923 36.4917 17.9829C36.2706 17.8638 35.9261 17.749 35.4582 17.6384C34.9904 17.5278 34.6969 17.4215 34.5778 17.3194C34.535 17.2861 34.5001 17.2435 34.4758 17.195C34.4515 17.1464 34.4384 17.093 34.4375 17.0387C34.4363 16.9809 34.4497 16.9237 34.4765 16.8724C34.5032 16.8211 34.5425 16.7774 34.5906 16.7452C34.748 16.6304 34.9649 16.573 35.2413 16.573C35.5178 16.573 35.7198 16.6261 35.8474 16.7325C35.9792 16.8388 36.0685 17.0132 36.1153 17.2556L37.0723 17.2173C37.0553 16.7793 36.8958 16.4305 36.5938 16.1711C36.2918 15.9116 35.8453 15.7819 35.2541 15.7819C34.936 15.7721 34.6193 15.8263 34.3226 15.9414C34.0801 16.0388 33.8731 16.2079 33.7293 16.4263C33.596 16.6266 33.525 16.8619 33.5252 17.1025C33.5224 17.2841 33.5599 17.4641 33.6349 17.6296C33.7099 17.795 33.8206 17.9418 33.959 18.0594C34.1674 18.2423 34.5289 18.3976 35.0435 18.5252C35.4391 18.6272 35.6943 18.6974 35.8091 18.7357C35.9373 18.7741 36.0536 18.8443 36.1472 18.9398C36.2148 19.02 36.2511 19.122 36.2493 19.2269C36.2461 19.3143 36.2233 19.3999 36.1824 19.4772C36.1415 19.5546 36.0837 19.6217 36.0133 19.6735C35.8559 19.8053 35.622 19.8713 35.3115 19.8713C35.0265 19.8713 34.7969 19.799 34.6225 19.6544C34.4481 19.5098 34.3354 19.2801 34.2844 18.9654L33.3529 19.0547C33.4125 19.5863 33.6039 19.9904 33.9271 20.2668ZM9.40364 23.6161C9.47988 23.5686 9.56917 23.5463 9.65883 23.5523C9.81194 23.5523 9.91827 23.5757 9.97781 23.6225C10.0081 23.6558 10.0306 23.6954 10.0438 23.7384C10.0571 23.7814 10.0607 23.8268 10.0544 23.8713V23.9351C9.86763 23.9992 9.67545 24.0462 9.4802 24.0755C9.31547 24.1021 9.15472 24.1492 9.00172 24.2158C8.89588 24.2656 8.8071 24.3455 8.74653 24.4455C8.68585 24.5477 8.65491 24.6648 8.65722 24.7836C8.6541 24.8729 8.67013 24.9618 8.70425 25.0443C8.73836 25.1268 8.78976 25.2011 8.85499 25.2621C9.00586 25.3951 9.20278 25.4638 9.40364 25.4535C9.53304 25.4542 9.6612 25.4281 9.78004 25.3769C9.90131 25.3232 10.0116 25.2475 10.1054 25.1536L10.1245 25.2238L10.1883 25.4025H10.7753C10.7267 25.3074 10.6903 25.2067 10.6668 25.1026C10.645 24.957 10.6364 24.8096 10.6413 24.6624V23.9606C10.6413 23.7055 10.6158 23.529 10.5647 23.4311C10.5011 23.3234 10.4051 23.2386 10.2904 23.1887C10.1628 23.1292 9.96505 23.0994 9.6971 23.0994C9.39939 23.0994 9.17822 23.1504 9.03362 23.2525C8.8732 23.3712 8.76015 23.543 8.71463 23.7374L9.25691 23.833C9.28231 23.7474 9.33355 23.6716 9.40364 23.6161ZM10.0607 24.4391C10.0645 24.5376 10.056 24.6362 10.0352 24.7326C10.0103 24.8098 9.96107 24.877 9.89487 24.924C9.80538 24.9934 9.69554 25.0315 9.58227 25.0324C9.53896 25.034 9.49577 25.0269 9.45523 25.0116C9.4147 24.9963 9.37764 24.973 9.34622 24.9431C9.31606 24.9156 9.29197 24.8821 9.2755 24.8448C9.25902 24.8074 9.25051 24.767 9.25053 24.7262C9.25105 24.6837 9.26247 24.642 9.28369 24.6051C9.30491 24.5683 9.33523 24.5375 9.37174 24.5157C9.47218 24.4654 9.57978 24.431 9.69072 24.4136C9.81562 24.388 9.93912 24.3561 10.0607 24.3179V24.4391ZM12.8487 23.2716C12.687 23.1568 12.4701 23.0994 12.1979 23.0994C11.8577 23.0994 11.5897 23.2015 11.3941 23.4056C11.1985 23.6098 11.1006 23.9011 11.1006 24.2796C11.1006 24.6454 11.1985 24.9325 11.3941 25.1409C11.5897 25.3493 11.8534 25.4556 12.1852 25.4599C12.4744 25.4599 12.7062 25.3897 12.8806 25.2493C13.065 25.092 13.189 24.8755 13.2314 24.6369L12.6445 24.5412C12.6147 24.6986 12.5637 24.8091 12.4914 24.8729C12.4135 24.9395 12.313 24.9737 12.2107 24.9686C12.1414 24.9711 12.0724 24.9574 12.0093 24.9286C11.9462 24.8999 11.8906 24.8568 11.8471 24.8028C11.762 24.6922 11.7195 24.5029 11.7195 24.235C11.7195 23.9925 11.762 23.8224 11.8471 23.7246C11.8906 23.6726 11.9454 23.6313 12.0073 23.6036C12.0692 23.576 12.1366 23.5628 12.2043 23.5651C12.3036 23.5605 12.4011 23.5923 12.4786 23.6544C12.5518 23.7256 12.5971 23.8207 12.6062 23.9224L13.1995 23.8139C13.147 23.5988 13.0234 23.4077 12.8487 23.2716ZM13.6525 22.2892V25.4025H14.2458V24.2732C14.2403 24.1264 14.2597 23.9798 14.3032 23.8394C14.3324 23.7505 14.3909 23.674 14.4691 23.6225C14.55 23.5742 14.6429 23.5499 14.737 23.5523C14.8135 23.5494 14.889 23.5694 14.954 23.6098C15.0095 23.6438 15.0522 23.6955 15.0752 23.7565C15.0964 23.8203 15.1071 23.9713 15.1071 24.2095V25.4025H15.7004V24.0819C15.706 23.9325 15.6975 23.783 15.6749 23.6353C15.6556 23.539 15.6165 23.4477 15.56 23.3673C15.4936 23.2819 15.4055 23.2158 15.3048 23.1759C15.1249 23.0957 14.9235 23.0772 14.7319 23.1234C14.5404 23.1696 14.3695 23.2777 14.2458 23.4311V22.2892H13.6525ZM16.9061 22.8442V22.2892H16.3064V22.8442H16.9061ZM16.9061 25.4025V23.1568H16.3064V25.4088L16.9061 25.4025ZM18.6797 24.9304C18.6124 24.9828 18.5289 25.0099 18.4436 25.0069C18.379 25.0088 18.3147 24.9967 18.2553 24.9714C18.1958 24.9461 18.1425 24.9081 18.0991 24.8602C18 24.7452 17.9477 24.5972 17.9524 24.4455H19.4452C19.4538 23.9904 19.3623 23.6502 19.1709 23.4248C18.9795 23.1993 18.7137 23.0888 18.3735 23.093C18.2344 23.0896 18.0962 23.1163 17.9685 23.1714C17.8407 23.2265 17.7264 23.3085 17.6334 23.412C17.4378 23.6246 17.34 23.9181 17.34 24.2924C17.34 24.6071 17.4144 24.8666 17.5632 25.0707C17.7546 25.3259 18.046 25.4535 18.4373 25.4535C18.6563 25.4611 18.8724 25.401 19.0561 25.2812C19.2279 25.159 19.3554 24.9844 19.4197 24.7836L18.82 24.6815C18.8013 24.7793 18.7522 24.8686 18.6797 24.9367V24.9304ZM17.9652 24.0819C17.9575 23.9427 18.0031 23.8058 18.0928 23.6991C18.1305 23.6564 18.1763 23.6215 18.2275 23.5965C18.2787 23.5715 18.3343 23.5569 18.3912 23.5534C18.4481 23.5499 18.5051 23.5576 18.5589 23.5762C18.6128 23.5947 18.6625 23.6237 18.7052 23.6614C18.7141 23.6691 18.7226 23.6774 18.7307 23.6863C18.8212 23.7976 18.8667 23.9387 18.8583 24.0819H17.9652ZM21.0912 25.4025L21.9844 23.144H21.3719L20.9445 24.2924L20.8807 24.4838L20.8169 24.6752L20.6893 24.2924L20.2682 23.144H19.643L20.5489 25.4025H21.0912ZM23.5155 24.9304C23.4482 24.9828 23.3647 25.0099 23.2794 25.0069C23.2148 25.0088 23.1505 24.9967 23.0911 24.9714C23.0316 24.9461 22.9783 24.9081 22.9349 24.8602C22.8381 24.7443 22.7881 24.5964 22.7946 24.4455H24.2874C24.2959 23.9904 24.2045 23.6502 24.0131 23.4248C23.8217 23.1993 23.5559 23.0888 23.2156 23.093C23.0766 23.0896 22.9384 23.1163 22.8107 23.1714C22.6829 23.2265 22.5686 23.3085 22.4756 23.412C22.2799 23.6246 22.1821 23.9181 22.1821 24.2924C22.1715 24.567 22.2498 24.8378 22.4054 25.0643C22.5926 25.3195 22.8818 25.4471 23.273 25.4471C23.4915 25.4566 23.7075 25.3987 23.8919 25.2812C24.0637 25.159 24.1912 24.9844 24.2555 24.7836L23.6622 24.6815C23.6417 24.7801 23.5903 24.8695 23.5155 24.9367V24.9304ZM22.801 24.0819C22.7933 23.9427 22.8389 23.8058 22.9285 23.6991C22.9663 23.6564 23.0121 23.6215 23.0633 23.5965C23.1145 23.5715 23.1701 23.5569 23.227 23.5534C23.2838 23.5499 23.3409 23.5576 23.3947 23.5762C23.4486 23.5947 23.4983 23.6237 23.541 23.6614C23.5499 23.6691 23.5584 23.6774 23.5665 23.6863C23.6569 23.7976 23.7025 23.9387 23.6941 24.0819H22.801ZM24.7276 25.4025H25.3273V24.3051C25.3213 24.1482 25.3385 23.9913 25.3783 23.8394C25.405 23.7544 25.4588 23.6805 25.5315 23.6289C25.6064 23.5772 25.6957 23.5505 25.7866 23.5523C25.8493 23.549 25.9116 23.5645 25.9653 23.597C26.0124 23.6341 26.046 23.6857 26.061 23.7437C26.0889 23.8822 26.0996 24.0237 26.0929 24.1648V25.4025H26.6926V24.3179C26.6868 24.161 26.704 24.0041 26.7436 23.8522C26.7708 23.7623 26.8268 23.6838 26.9031 23.6289C26.9719 23.5795 27.0544 23.5528 27.1391 23.5523C27.1892 23.5489 27.2393 23.5589 27.2841 23.5813C27.329 23.6037 27.3671 23.6378 27.3943 23.6799C27.4368 23.7437 27.4581 23.8883 27.4581 24.1138V25.4025H28.0514V23.9606C28.059 23.8028 28.0374 23.6449 27.9876 23.4949C27.9375 23.3699 27.8479 23.2646 27.7324 23.1951C27.6038 23.1238 27.4584 23.0885 27.3114 23.093C27.1847 23.093 27.06 23.1236 26.9477 23.1823C26.8238 23.2511 26.7153 23.3444 26.6288 23.4566C26.5692 23.3423 26.4785 23.2472 26.3672 23.1823C26.2497 23.1195 26.1176 23.0887 25.9844 23.093C25.7165 23.093 25.4825 23.2142 25.2826 23.4566V23.144H24.7404L24.7276 25.4025ZM29.8058 24.9304C29.7386 24.9828 29.655 25.0099 29.5698 25.0069C29.5052 25.0088 29.4409 24.9967 29.3814 24.9714C29.3219 24.9461 29.2687 24.9081 29.2253 24.8602C29.1262 24.7452 29.0738 24.5972 29.0786 24.4455H30.5778C30.5863 23.9904 30.4927 23.6502 30.2971 23.4248C30.1014 23.1993 29.8377 23.0888 29.506 23.093C29.3659 23.0887 29.2265 23.1149 29.0975 23.17C28.9686 23.2251 28.8533 23.3077 28.7596 23.412C28.5639 23.6246 28.4661 23.9181 28.4661 24.2924C28.4554 24.567 28.5338 24.8378 28.6894 25.0643C28.8808 25.3195 29.1721 25.4471 29.5634 25.4471C29.7818 25.4566 29.9979 25.3987 30.1822 25.2812C30.354 25.159 30.4816 24.9844 30.5459 24.7836L29.9526 24.6815C29.9321 24.7801 29.8807 24.8695 29.8058 24.9367V24.9304ZM29.0913 24.0819C29.0837 23.9427 29.1293 23.8058 29.2189 23.6991C29.2961 23.6139 29.404 23.5628 29.5188 23.557C29.6336 23.5513 29.7461 23.5914 29.8314 23.6685L29.8505 23.6863C29.9432 23.7967 29.991 23.9379 29.9845 24.0819H29.0913ZM33.1105 23.9989C33.1144 23.8642 33.1037 23.7294 33.0786 23.597C33.0591 23.5047 33.0199 23.4176 32.9638 23.3418C32.8967 23.2643 32.8111 23.205 32.715 23.1696C32.5233 23.0892 32.3102 23.0758 32.11 23.1313C31.9098 23.1869 31.7341 23.3082 31.6113 23.4758V23.1568H31.0562V25.4088H31.6559V24.3881C31.6559 24.1329 31.6708 23.9606 31.7006 23.8713C31.7294 23.7805 31.7878 23.7019 31.8665 23.648C31.9483 23.5895 32.0465 23.5582 32.1472 23.5587C32.2201 23.5586 32.2914 23.5809 32.3513 23.6225C32.4106 23.6626 32.4554 23.7208 32.4789 23.7884C32.5044 23.8564 32.5172 24.0138 32.5172 24.2605V25.4088H33.1105V23.9989ZM34.3418 23.144V22.353L33.7485 22.6975V23.144H33.4741V23.6225H33.7485V24.605C33.7446 24.7456 33.751 24.8863 33.7676 25.026C33.7779 25.1078 33.8062 25.1863 33.8505 25.2557C33.8998 25.3196 33.9662 25.3683 34.0419 25.3961C34.1329 25.434 34.2305 25.4535 34.329 25.4535C34.4908 25.4562 34.6515 25.4258 34.8011 25.3642L34.7501 24.8985C34.6753 24.9321 34.5956 24.9537 34.514 24.9623C34.4774 24.9632 34.4415 24.952 34.412 24.9304C34.386 24.9121 34.3678 24.8848 34.3609 24.8538C34.3492 24.7479 34.3449 24.6413 34.3482 24.5348V23.6225H34.7565V23.144H34.3418ZM35.3051 25.2621C35.488 25.3897 35.7326 25.4535 36.0388 25.4535C36.379 25.4535 36.6342 25.3791 36.8043 25.2302C36.8845 25.1658 36.949 25.0842 36.9932 24.9914C37.0374 24.8986 37.0601 24.7971 37.0595 24.6943C37.0644 24.6107 37.0502 24.5272 37.0182 24.4498C36.9861 24.3725 36.937 24.3034 36.8745 24.2477C36.7469 24.1457 36.5258 24.0585 36.211 23.9862C35.8963 23.9139 35.7092 23.8586 35.6496 23.8203C35.6305 23.8093 35.6146 23.7935 35.6034 23.7745C35.5922 23.7555 35.5862 23.7339 35.5858 23.7118C35.5865 23.6866 35.594 23.662 35.6075 23.6407C35.6209 23.6194 35.6399 23.6021 35.6624 23.5906C35.7654 23.5405 35.8798 23.5185 35.9941 23.5268C36.0968 23.5197 36.1992 23.5442 36.2876 23.597C36.3552 23.6468 36.4028 23.7193 36.4216 23.8012L36.983 23.6927C36.9387 23.5115 36.8298 23.3527 36.6767 23.2461C36.5236 23.1483 36.294 23.0994 35.9877 23.0994C35.6645 23.0994 35.4242 23.1653 35.2668 23.2972C35.1941 23.3565 35.1357 23.4315 35.096 23.5166C35.0562 23.6016 35.0361 23.6945 35.0372 23.7884C35.0335 23.8894 35.0563 23.9897 35.1033 24.0792C35.1503 24.1687 35.2199 24.2444 35.3051 24.2988C35.4327 24.3881 35.7368 24.4859 36.2174 24.5922C36.2904 24.6017 36.3603 24.6279 36.4216 24.6688C36.4489 24.7005 36.4627 24.7418 36.4598 24.7836C36.4608 24.8144 36.4544 24.845 36.4411 24.8727C36.4278 24.9005 36.4079 24.9247 36.3833 24.9431C36.2778 25.0065 36.1551 25.0355 36.0324 25.026C35.9192 25.0316 35.8073 25.0003 35.7134 24.9367C35.6293 24.8699 35.5726 24.7746 35.5539 24.6688L34.9542 24.7645C35.0053 24.9699 35.1302 25.1493 35.3051 25.2685V25.2621ZM36.6193 4.39418L36.5683 2.59512L37.1169 3.24584C38.5396 4.91732 38.9351 5.65736 39.0436 6.84398C39.1074 7.54574 38.9607 8.56649 38.7757 8.77064C38.7662 8.78188 38.7545 8.79107 38.7413 8.79765C38.7282 8.80423 38.7138 8.80807 38.6991 8.80892C38.6162 8.80892 38.1887 8.42614 37.9782 8.22837C37.5814 7.83654 37.2555 7.37894 37.0149 6.87588C36.6959 6.18049 36.6512 5.92531 36.6129 4.3878L36.6193 4.39418ZM36.7278 40.6754C34.7501 40.2416 32.6703 39.9098 31.8792 39.9098C31.0244 39.9098 29.3465 40.2671 28.8425 40.5606C28.8242 40.5703 28.809 40.5851 28.7988 40.6032C28.7887 40.6213 28.7839 40.6419 28.7851 40.6626C28.8042 40.8923 29.5698 41.3835 30.3609 41.677C30.8649 41.862 31.4008 41.9322 32.2684 41.9386H32.3449C33.3402 41.9386 33.7549 41.8556 35.3179 41.3835C36.6895 40.9689 36.9319 40.8795 36.9255 40.7775C36.9255 40.7264 36.8554 40.7009 36.7342 40.6754H36.7278ZM40.8554 13.1024C40.8726 13.1304 40.8958 13.1541 40.9235 13.1718C40.9511 13.1895 40.9823 13.2007 41.0149 13.2045C41.0915 13.2045 41.168 13.128 41.2701 13.0004C41.6897 12.324 41.9473 11.5598 42.0229 10.7675C42.0229 10.1486 41.4806 8.15181 40.9192 6.67173C40.9153 6.65932 40.9078 6.64839 40.8975 6.64041C40.8872 6.63243 40.8748 6.62778 40.8618 6.62707C40.7725 6.62707 40.613 6.92691 40.3897 7.52022C40.0325 8.45804 39.9878 8.73236 39.9814 10.0211C39.975 11.3608 40.0006 11.5267 40.3451 12.1965C40.4985 12.5076 40.6688 12.81 40.8554 13.1024ZM38.7501 36.1203C37.0149 36.267 35.8282 36.6371 34.7756 37.358C34.0292 37.862 33.7485 38.1235 33.7357 38.3213C33.7355 38.3585 33.744 38.3952 33.7606 38.4284C33.7773 38.4617 33.8015 38.4906 33.8314 38.5127C33.9399 38.6084 34.278 38.7296 34.5842 38.7934C34.9159 38.8612 35.2536 38.8954 35.5922 38.8955C36.3578 38.8955 37.1233 38.7041 38.1377 38.2894C38.7565 38.0342 41.3977 36.3117 41.5444 36.0693C41.5507 36.0598 41.5541 36.0487 41.5541 36.0374C41.5541 36.026 41.5507 36.0149 41.5444 36.0055C41.4934 35.9225 41.066 35.9225 38.7565 36.1203H38.7501ZM44.007 30.2765C43.5961 30.4085 43.1788 30.5192 42.7566 30.6083C41.7167 30.8316 39.9878 31.7566 39.1393 32.5668C39.0334 32.6693 38.9313 32.7757 38.8331 32.8858C39.5582 31.8115 40.1798 30.6708 40.6896 29.4791C40.6958 29.5222 40.7187 29.5611 40.7534 29.5875C40.7917 29.6107 40.8362 29.6218 40.8809 29.6194C41.0213 29.6194 41.2637 29.5492 41.6975 29.3834C42.6107 29.0446 43.4093 28.454 44.0006 27.68C44.4025 27.125 46.074 23.8522 45.9974 23.6991C45.9947 23.6912 45.9895 23.6845 45.9826 23.6799C45.9757 23.6753 45.9675 23.6731 45.9592 23.6736C45.8507 23.6736 44.1091 24.7964 43.2351 25.3961C42.526 25.8503 41.9355 26.467 41.5125 27.1951C41.8256 26.1346 42.0539 25.0509 42.1952 23.9543L42.2079 23.9606C42.2368 23.978 42.2699 23.9868 42.3036 23.9862C42.4567 23.9862 42.7055 23.8458 43.1649 23.5651C44.3324 22.8506 45.0724 21.4343 45.4169 19.2397C45.519 18.6145 45.6529 17.9574 45.7231 17.7724C45.7742 17.6384 45.8061 17.4725 45.7614 17.4151C45.7568 17.4068 45.7504 17.3996 45.7427 17.3941C45.735 17.3886 45.7261 17.3849 45.7167 17.3832C45.4935 17.3832 43.554 19.4375 43.1266 20.0754C42.7915 20.5594 42.5353 21.0934 42.3674 21.6576L42.3738 21.2238C42.3733 20.2161 42.3008 19.2099 42.1569 18.2126C42.2143 18.2891 42.2845 18.3721 42.3291 18.3721C42.6035 18.3721 43.2733 17.7851 43.5094 17.3513C44.0644 16.3178 44.2048 15.0419 44.0134 12.8026L43.8922 11.431L43.2861 12.4007C42.9339 12.9638 42.6086 13.5422 42.31 14.1359C41.9208 14.9398 41.8953 15.0865 41.8953 16.3752V16.7771C41.4718 14.7908 40.7581 12.8776 39.7773 11.0992C38.558 8.89751 36.9373 6.94355 34.9989 5.33838C35.0402 5.35229 35.083 5.36087 35.1265 5.36389C35.1374 5.36329 35.1481 5.36114 35.1584 5.35751C35.1782 5.35054 35.1963 5.33958 35.2116 5.32532C35.227 5.31105 35.2393 5.29378 35.2477 5.27458C35.3881 5.01939 35.3944 4.25383 35.2605 3.79449C35.0563 3.09273 33.9335 1.82956 32.9 1.14693C31.9494 0.508963 31.9047 0.56 31.892 0.572759C31.7835 0.674834 32.2812 2.35907 32.4853 2.8184C32.7465 3.31963 33.0773 3.78141 33.4678 4.19003L32.9574 3.85829H32.9446C32.6129 3.69242 31.9622 3.32878 31.3306 2.96514L31.2859 2.946V2.8822C31.2859 1.93801 30.329 0.95554 29.0722 0.585519L27.6367 0.158081C27.4454 0.094284 26.9924 -0.0396892 26.9414 0.0113482C26.9367 0.0165264 26.9332 0.0225914 26.931 0.0291728C26.9288 0.0357542 26.928 0.0427137 26.9286 0.0496263C26.9414 0.266535 28.2939 1.96353 28.7659 2.34631C29.0963 2.60293 29.4615 2.81129 29.8505 2.96514C30.1296 3.06326 30.4183 3.13168 30.7117 3.16929L32.3705 4.31763C31.8782 4.21177 31.373 4.17952 30.8712 4.22193C30.0738 4.30487 28.2173 4.8599 28.0004 5.08319C27.9944 5.08875 27.99 5.09585 27.9877 5.10373C27.9855 5.1116 27.9855 5.11995 27.9876 5.12785C28.0259 5.24268 28.817 5.31924 28.9765 5.33838C29.557 5.38941 30.38 5.48511 30.8011 5.54252C31.2246 5.59036 31.6508 5.61167 32.077 5.60632C32.8426 5.60632 33.6273 5.55528 33.8505 5.46597C33.8879 5.45166 33.9242 5.4346 33.959 5.41493C34.4686 5.80031 34.9583 6.21127 35.4263 6.64621C34.5969 6.36585 33.724 6.23621 32.8489 6.26343H32.8234C31.6623 6.26343 31.4901 6.35912 31.4773 6.45482C31.4646 6.53137 31.573 6.60793 31.8473 6.71001C32.1089 6.8057 32.8681 7.15658 33.5379 7.47557C34.2078 7.79455 35.101 8.14543 35.5284 8.23475C36.0123 8.33002 36.5029 8.38761 36.9957 8.407H37.0978C37.2509 8.59414 37.4019 8.78553 37.5508 8.98117C37.8485 9.36395 38.1334 9.75949 38.4056 10.1678C38.0236 9.89428 37.6129 9.66324 37.1807 9.47878C36.3514 9.12152 34.6289 8.63029 34.4821 8.7834L34.4694 8.79616V8.80892C34.7426 9.10679 35.0414 9.38004 35.3625 9.62552L36.983 10.9652C37.6911 11.5649 39.0372 12.3879 39.4966 12.5091L39.7517 12.5729C40.0894 13.299 40.3834 14.0446 40.6321 14.8058C39.9798 13.9606 39.1357 13.2827 38.1696 12.8281C37.9782 12.7133 36.9574 12.1774 36.8618 12.2412C36.8561 12.2444 36.8514 12.2491 36.848 12.2547C36.8447 12.2602 36.8428 12.2666 36.8426 12.2731C36.8426 12.3624 37.0978 12.675 37.2701 12.86C37.7358 13.364 38.3737 14.3082 38.7565 15.0546C39.3268 15.9027 40.0467 16.6398 40.8809 17.2301C41.0235 17.3333 41.1727 17.427 41.3275 17.5108C41.5144 18.5112 41.6274 19.5241 41.6656 20.5411C41.6053 20.2925 41.5307 20.0476 41.4424 19.8075C41.1489 18.9973 40.9511 18.7166 40.1281 17.8936C39.5986 17.3641 39.0245 16.7899 38.8522 16.6049L38.5332 16.2795L38.4822 16.3114L38.5715 16.6368C39.4966 19.8777 40.058 21.1727 41.0979 22.4359C41.3849 22.7868 41.5125 22.9399 41.6082 22.9718C41.5785 23.3248 41.5402 23.6757 41.4934 24.0244C41.4105 24.6178 41.302 25.2111 41.1744 25.798C41.1508 25.2809 41.0542 24.7697 40.8873 24.2796C40.6768 23.6799 39.2031 21.1217 38.9989 21.077C38.991 21.0749 38.9827 21.0749 38.9748 21.0771C38.9669 21.0794 38.9598 21.0838 38.9543 21.0898C38.8458 21.2174 39.1776 25.5683 39.286 26.0213C39.4837 26.8023 39.8162 27.5428 40.2685 28.2095L40.3961 28.3499C40.0293 29.3184 39.5878 30.2569 39.0755 31.1569C39.2256 30.2767 39.2278 29.3775 39.0819 28.4966C38.8713 27.2717 38.4949 25.9639 38.2525 25.9639C38.1632 25.9702 38.1249 26.117 38.1249 26.4296C38.1249 26.621 37.9463 27.4822 37.7358 28.3435C37.1297 30.8124 37.1106 31.6864 37.6337 33.0389L37.7103 33.2431C37.2316 33.8867 36.7139 34.5003 36.16 35.0804C36.4216 34.2766 36.5619 32.771 36.4662 31.578L36.3641 30.3658L35.7517 31.5461C35.4914 32.0543 35.2086 32.5498 34.9032 33.0325C34.2206 34.0086 34.01 34.704 33.9335 36.1267L33.8888 37.09C33.6762 37.2521 33.4593 37.4094 33.2381 37.5621C32.7857 37.8794 32.3172 38.1733 31.8346 38.4425C32.4853 37.5493 32.9829 36.3308 33.1871 34.9911L33.3083 34.2255L32.4598 35.0358C30.0355 37.358 29.3656 38.2639 29.2125 39.4186L29.187 39.6546C28.478 39.9124 27.7536 40.1254 27.0179 40.2926C27.7962 39.7822 28.9956 38.2065 29.187 37.4218L29.2827 37.0135L28.5937 37.358C28.1222 37.5802 27.6387 37.7761 27.1455 37.9449C26.6909 38.0988 26.2544 38.302 25.8441 38.551C25.2316 38.9656 24.3193 40.1331 24.3193 40.4968C24.3113 40.5647 24.3295 40.6332 24.3704 40.6881C23.5659 40.7505 22.7581 40.759 21.9525 40.7137L21.7611 40.2416C21.289 39.0868 20.5489 38.4744 18.9157 37.9066C18.4282 37.7369 17.951 37.5388 17.4867 37.3133L16.8679 36.9879L16.9763 37.3643C17.2315 38.2447 18.4309 39.7312 19.2985 40.3628C18.9583 40.2862 18.6223 40.2012 18.2905 40.1076C17.8397 39.9928 17.3952 39.8567 16.9572 39.6993C16.9621 39.5928 16.9578 39.4861 16.9444 39.3803C16.8296 38.3596 16.4723 37.8301 14.686 36.0182L12.8997 34.2L12.989 34.8635C13.0337 35.1825 13.2123 35.9098 13.3909 36.4903C13.6419 37.3197 13.9949 38.0129 14.45 38.5701C13.684 38.1525 12.9485 37.6814 12.249 37.1602L12.2936 36.9688C12.5488 35.9289 12.0512 34.1235 11.1453 32.7646C10.9539 32.4903 10.603 31.8587 10.3415 31.3547L9.87574 30.436L9.81194 30.4488L9.77366 32.1521C9.74814 33.1091 9.7928 34.1617 9.87574 34.5509C9.94766 34.8524 10.0615 35.1423 10.2139 35.4122C9.56495 34.768 8.96168 34.0795 8.40841 33.3515C8.65084 33.1793 8.91878 31.8395 8.91878 31.0548C8.91878 30.5126 8.75291 29.4982 8.47221 28.3499C8.22978 27.3419 8.02563 26.3466 8.01925 26.1297C8.01287 25.8937 8.00649 25.8363 7.95545 25.8235C7.90442 25.8107 7.87252 25.8809 7.70027 26.2701C7.4068 26.9208 6.93471 29.1409 6.93471 29.8746C6.93471 30.1553 7.03678 30.8316 7.15161 31.3738L7.19627 31.5652C6.75535 30.8349 6.3632 30.0762 6.02241 29.2941C5.89057 28.9921 5.76297 28.6837 5.63963 28.369C5.70343 28.369 5.7736 28.3052 5.86292 28.2286C6.1819 27.9288 6.56468 27.176 6.81987 26.353C6.9666 25.8809 7.22817 22.7995 7.24731 21.2876C7.24731 21.2238 7.21541 21.2046 7.19627 21.1982C6.92195 21.1982 5.49928 23.6863 5.28237 24.4519C5.07765 25.1185 4.99551 25.8166 5.03994 26.5125C4.72845 25.3426 4.52347 24.1468 4.42749 22.9399C4.45301 23.0228 4.49129 23.0866 4.52319 23.0866C4.6763 23.0866 5.87568 21.4088 6.18828 20.8346C6.42433 20.4135 6.80711 19.3035 7.43232 17.2109C7.53439 16.8792 7.64285 16.5092 7.64285 16.4581V16.4326L7.62371 16.4263C7.59819 16.4135 7.55991 16.3944 6.43709 17.498C5.18667 18.7229 4.79113 19.3737 4.43387 20.8091L4.35732 21.1727C4.36344 19.953 4.47658 18.7362 4.69544 17.5363C4.70124 17.5414 4.70768 17.5457 4.71458 17.5491C4.72829 17.5567 4.74357 17.5611 4.75924 17.5618C4.85493 17.5618 5.01442 17.4534 5.37169 17.1982C6.37161 16.4131 7.22106 15.4535 7.8789 14.3656C8.24594 13.7953 8.6351 13.2402 9.04638 12.7005C9.29519 12.3943 9.41002 12.2157 9.39088 12.1774L9.37812 12.1519H9.3526C9.09741 12.1519 6.84539 13.4661 6.37967 13.8871C5.94663 14.272 5.5707 14.7167 5.26323 15.2077C5.53511 14.3196 5.86982 13.4519 6.26484 12.6112H6.29036C6.90281 12.6112 8.98258 11.3225 10.0671 10.2826C10.3223 10.0402 10.8263 9.61276 11.1963 9.32567C11.6046 9.00669 11.7195 8.88547 11.6812 8.80892C11.6365 8.71322 11.3941 8.74512 10.5647 8.94289C9.3526 9.23636 8.24254 9.79777 7.41956 10.4804C7.87583 9.75974 8.38102 9.07125 8.93154 8.41976H9.16759C10.2266 8.41976 11.4324 8.10077 12.5488 7.53298C13.1102 7.25228 13.8439 6.91416 14.182 6.78018C14.635 6.60793 14.686 6.52499 14.6732 6.45482C14.6541 6.35912 14.4819 6.26343 13.3399 6.26343C12.1533 6.26343 11.2793 6.39102 10.5392 6.72276C11.0505 6.24749 11.5872 5.80025 12.1469 5.38303C12.3204 5.45968 12.5025 5.51537 12.6892 5.5489C13.0591 5.6201 13.4353 5.65429 13.812 5.65098C14.3606 5.65098 15.0114 5.58718 15.8599 5.47235C16.6382 5.37027 17.4803 5.28096 17.7419 5.28096C17.7929 5.28096 18.2522 5.28096 18.2522 5.14699C18.2522 5.01301 17.3017 4.69403 17.1103 4.63023C15.9517 4.20969 14.6982 4.12348 13.493 4.38142C14.1267 3.90933 14.652 3.50954 15.0688 3.18205C15.1283 3.1853 15.1879 3.1853 15.2474 3.18205C16.2108 3.18205 16.9699 2.79927 17.9269 1.81042C18.6286 1.08313 19.3304 0.215498 19.2028 0.0432466C19.1645 -0.0205502 19.0561 0.0241076 19.0242 0.0368669C18.8966 0.0879043 18.3862 0.241016 17.895 0.36861C15.9109 0.891743 15.2347 1.4085 14.954 2.63977L14.737 2.78013C14.1693 3.13739 13.5249 3.55845 13.0145 3.90295C13.5958 3.19501 13.9906 2.35281 14.1629 1.45315L14.4181 0.470685L14.0736 0.655695C13.9204 0.738631 13.4547 1.03848 13.0401 1.32556C11.4069 2.45476 10.5647 3.87743 10.8518 5.03853C10.871 5.13423 10.9284 5.332 10.9858 5.38941C10.2353 6.01324 9.53169 6.6913 8.88051 7.41815C9.53123 6.41654 9.78642 5.10871 9.62693 3.59672L9.53123 2.66529L8.6636 3.74984C8.23206 4.28093 7.84781 4.84876 7.51526 5.44683C7.13045 6.32069 7.02355 7.29172 7.20903 8.22837C7.25369 8.43252 7.36214 8.80892 7.48974 8.80892C7.57267 8.80892 7.87252 8.55373 8.1277 8.29854C7.3696 9.25498 6.69916 10.2777 6.12449 11.3544C6.22186 10.9318 6.27108 10.4994 6.27122 10.0657C6.27122 9.27463 6.1819 8.77064 5.84378 7.71161L5.37807 6.27619L4.98252 7.46919C4.00643 10.4357 3.97454 11.3863 4.81027 12.8281L5.09098 13.3257L5.30789 13.0705C4.9351 13.9539 4.62388 14.862 4.37646 15.7883C4.36139 15.6682 4.34009 15.5489 4.31266 15.431C4.11784 14.6034 3.79497 13.8113 3.35571 13.0833C3.13524 12.783 2.93286 12.4699 2.74964 12.1455C2.43066 11.6096 2.36686 11.5203 2.30306 11.533C2.25202 11.5522 2.24565 11.6351 2.24565 11.8329C2.24565 12.0626 2.20099 12.8983 2.14357 13.6957C1.98408 16.0754 2.386 17.4789 3.42588 18.1169C3.63003 18.2445 3.76401 18.3274 3.87246 18.3402C3.7387 19.2956 3.67049 20.259 3.66831 21.2238V21.2557C3.22174 20.2923 2.12443 18.6719 1.65872 18.3402C1.48646 18.2126 1.13558 17.9446 0.886775 17.7277C0.58055 17.4661 0.503994 17.4342 0.459336 17.4661C0.414679 17.498 0.433818 17.5427 0.459336 17.6192C0.510374 17.7532 0.637967 18.3976 0.746422 19.0547C1.12282 21.396 1.78631 22.7294 2.96017 23.5268C3.30467 23.7565 3.72573 23.9989 3.85332 24.0053C3.97439 24.9504 4.15983 25.8861 4.40835 26.806C4.10027 26.331 3.70395 25.9195 3.24087 25.5938C2.99207 25.4407 2.45617 25.0835 2.04788 24.79C1.63958 24.4965 1.02713 24.0946 0.695384 23.8968L0 23.4885L0.810219 25.1664C1.17939 25.9413 1.58344 26.6984 2.02236 27.4376C2.3921 27.9963 2.86887 28.4762 3.42513 28.8496C3.98139 29.223 4.60612 29.4824 5.26323 29.613C5.30819 29.6178 5.3534 29.6065 5.39082 29.5811C5.81028 30.554 6.30515 31.4925 6.87091 32.3882C6.74938 32.2708 6.6216 32.1601 6.48813 32.0564C5.55799 31.3952 4.51637 30.9068 3.41313 30.6146C3.00603 30.5324 2.60524 30.4216 2.21375 30.2829C1.76717 30.1043 1.65872 30.0788 1.62044 30.1362C1.58216 30.1936 1.63958 30.2701 1.90752 30.57C2.11805 30.806 2.54549 31.3419 2.85809 31.763C3.43226 32.5541 4.75924 33.7279 5.53756 34.1426C5.7736 34.2702 6.31588 34.4488 6.74969 34.5445C7.05753 34.6168 7.37156 34.6595 7.68751 34.6721C7.72781 34.6763 7.76842 34.6763 7.80872 34.6721C7.96397 34.6374 8.12191 34.616 8.28082 34.6083C8.37013 34.6083 8.43393 34.6083 8.46583 34.5573C8.74653 34.889 9.03574 35.2123 9.33346 35.527C9.9099 36.1304 10.5235 36.6972 11.1708 37.224L10.8199 37.0326C10.4746 36.8595 10.1301 36.6851 9.78642 36.5095C9.35898 36.2926 4.75286 35.7822 4.54871 35.9353L4.52957 35.9417V35.9608C4.52957 36.0246 5.40358 36.6498 5.92672 37.0198C7.33025 38.0151 7.72579 38.2192 9.19311 38.6786C9.64037 38.8105 10.1048 38.875 10.5711 38.8699C11.1217 38.8818 11.6694 38.7887 12.1852 38.5956L12.6956 38.3787L12.5042 38.2192C13.6118 38.9725 14.7966 39.6056 16.0385 40.1076C14.7355 39.8636 13.3966 39.8853 12.1022 40.1714C11.4132 40.3117 10.4435 40.4968 9.92039 40.5861L8.98258 40.7456V40.8094L9.53761 40.9689L11.3686 41.5239C12.2259 41.791 13.1182 41.9286 14.0161 41.9322C15.2921 41.9322 16.4277 41.6323 17.0784 41.039L17.525 40.6435L17.4612 40.618C18.3522 40.8947 19.2628 41.1037 20.1853 41.2432C19.8383 41.3241 19.4973 41.4285 19.1645 41.5558C18.3331 41.9224 17.5122 42.3116 16.702 42.7233C14.7243 43.7057 14.7243 43.7568 14.7243 43.7823V43.8014L14.737 43.8078C14.7626 43.8269 14.8838 43.8397 15.0752 43.8397C15.8025 43.8397 17.4994 43.7185 18.0353 43.6419C19.1645 43.4697 20.6319 42.9721 21.2379 42.551C21.5658 42.3017 21.8653 42.0171 22.1311 41.7025L22.348 41.4473C22.8158 41.4648 23.2858 41.4648 23.7579 41.4473L24.3576 42.0215C24.8683 42.5821 25.5347 42.9775 26.2715 43.1571C27.3531 43.5617 28.4979 43.7713 29.6527 43.7759C30.5012 43.8269 31.254 43.878 31.3433 43.8907C31.3625 43.8921 31.3816 43.8921 31.4008 43.8907C31.4436 43.894 31.4863 43.8828 31.522 43.8588C31.534 43.8471 31.5409 43.831 31.5411 43.8142C31.5411 43.6866 30.3098 43.0933 29.9845 42.9976C29.8122 42.9465 29.4677 42.7615 29.2189 42.5893C28.1853 41.9601 27.0563 41.5033 25.876 41.2368C30.5986 40.4745 34.8653 37.9736 37.8378 34.2255C37.788 34.3074 37.7554 34.3986 37.7421 34.4935C37.7421 34.5828 38.0292 34.6338 38.1249 34.6466C38.2136 34.6598 38.3032 34.6662 38.3929 34.6657C39.1329 34.6657 40.3514 34.3467 40.8809 33.9831C42.4567 32.9049 42.865 32.5158 43.6178 31.3674C43.8273 31.0372 44.0854 30.7404 44.3834 30.4871C44.6705 30.2957 44.6832 30.2255 44.6641 30.1808C44.645 30.1489 44.6067 30.0724 44.0134 30.2765H44.007Z" fill="white"/>
</svg>
