<svg width="86" height="25" fill="none" xmlns="http://www.w3.org/2000/svg"><path d="M22.36 0h3.956v25H22.36V0ZM40.076 17.077c0 3.874-3.096 4.226-4.128 4.226-2.408 0-2.752-2.289-2.752-3.521V8.099H29.24v9.507c0 2.288.688 4.401 2.064 5.633C32.508 24.472 34.056 25 35.948 25c1.376 0 3.096-.352 4.128-1.409V25h3.956V8.099h-3.956v8.978ZM51.772 1.937h-3.956v6.162h-2.924v3.873h2.924V25h3.956V11.972h2.924V8.099h-2.924V1.937ZM67.08 19.894c-.86.705-2.064 1.233-3.268 1.233-2.752 0-4.644-2.113-4.644-4.93 0-2.817 1.892-4.753 4.644-4.753 1.204 0 2.408.352 3.268 1.232l.516.528 2.752-2.64-.688-.529c-1.548-1.408-3.612-2.288-5.848-2.288-4.816 0-8.428 3.697-8.428 8.626 0 4.93 3.612 8.627 8.428 8.627 2.236 0 4.3-.88 5.848-2.289l.688-.528-2.752-2.817-.516.528ZM84.28 9.507c-1.204-1.232-2.408-1.76-4.3-1.76-1.376 0-2.752.352-3.784 1.408V0H72.24v25h3.956v-9.331c0-3.873 2.58-4.225 3.612-4.225 2.408 0 2.236 2.288 2.236 3.52v9.86H86V15.14c0-2.289-.516-4.402-1.72-5.634Z" fill="#fff"/><path d="M63.64 19.19c1.52 0 2.752-1.261 2.752-2.817 0-1.556-1.232-2.817-2.752-2.817-1.52 0-2.752 1.262-2.752 2.817 0 1.556 1.232 2.817 2.752 2.817ZM16.856 18.838c-1.376 1.408-3.44 2.289-5.676 2.289-4.3 0-7.396-3.521-7.396-8.275 0-4.753 3.096-8.275 7.568-8.275 2.064 0 4.128.88 5.676 2.465l.516.528 2.58-2.64-.516-.529c-2.236-2.288-5.16-3.52-8.256-3.52C4.816.703 0 5.985 0 12.851S4.816 25 11.18 25c3.096 0 6.192-1.232 8.256-3.521l.516-.528-2.58-2.641-.516.528Z" fill="#fff"/></svg>
