<svg width="40" height="41" viewBox="0 0 40 41" fill="none" xmlns="http://www.w3.org/2000/svg">
<circle cx="20" cy="20.2378" r="19.5" stroke="#DC296C"/>
<g clip-path="url(#clip0_20267_364)">
<path d="M20.0003 30.2378C14.4885 30.2378 10.0003 25.7496 10.0003 20.2378C10.0003 14.726 14.4885 10.2378 20.0003 10.2378C25.5122 10.2378 30.0003 14.726 30.0003 20.2378C30.0003 25.7496 25.5122 30.2378 20.0003 30.2378ZM20.0003 11.1901C15.0122 11.1901 10.9527 15.2497 10.9527 20.2378C10.9527 25.2259 15.0122 29.2855 20.0003 29.2855C24.9885 29.2855 29.048 25.2259 29.048 20.2378C29.048 15.2497 24.9885 11.1901 20.0003 11.1901Z" fill="white"/>
<path d="M23.7921 28.7676C23.5361 21.0116 20.3336 14.4641 15.6372 12.089L16.0659 11.2378C21.0718 13.7676 24.4765 20.6367 24.7444 28.7378L23.7921 28.7676Z" fill="white"/>
<path d="M12.8573 20.2382C12.0499 20.239 11.2432 20.1953 10.4406 20.1072L10.5477 19.1608C11.3147 19.2452 12.0858 19.2869 12.8573 19.2859C18.4406 19.2859 23.5597 17.0834 26.5538 13.3989L27.2918 14C24.1191 17.9049 18.7263 20.2382 12.8573 20.2382Z" fill="white"/>
<path d="M14.7444 28.1307L13.9171 27.6544C16.6433 22.9403 20.7742 20.2378 25.2384 20.2378C26.7457 20.2399 28.2363 20.5498 29.6194 21.1484L29.2444 22.0235C27.9798 21.4759 26.6166 21.1924 25.2384 21.1901C21.1194 21.1901 17.2979 23.7199 14.7444 28.1307Z" fill="white"/>
</g>
<defs>
<clipPath id="clip0_20267_364">
<rect width="20" height="20" fill="white" transform="translate(10 10.2378)"/>
</clipPath>
</defs>
</svg>
