<svg width="136" height="52" fill="none" xmlns="http://www.w3.org/2000/svg"><path d="M22.802 20.63s-2.01-.2-2.01 1.569v7.924h13.192v2.373s.04 1.167-1.206 1.167H20.79V43.96h14.4S43.92 42.632 44 33.663V20.63H22.802ZM43.598 8H17.613C8.201 10.212 8 17.935 8 17.935V44h9.975V20.268c0-2.011 2.012-2.373 2.012-2.373h23.57L43.597 8Z" fill="#E9E8EB"/><g clip-path="url(#a)"><path d="m57.495 22.893-4.253.617-.075.015a.667.667 0 0 0-.294 1.123l3.082 3-.727 4.236-.009.073a.666.666 0 0 0 .976.63l3.804-2 3.796 2 .066.03a.665.665 0 0 0 .902-.733l-.728-4.237 3.083-3 .052-.056a.666.666 0 0 0-.422-1.08l-4.253-.618-1.902-3.853a.667.667 0 0 0-1.196 0l-1.902 3.853Z" fill="#E8E7EA"/></g><g clip-path="url(#b)"><path d="m74.495 22.893-4.253.617-.075.015a.667.667 0 0 0-.294 1.123l3.082 3-.727 4.236-.009.073a.666.666 0 0 0 .976.63l3.804-2 3.796 2 .066.03a.665.665 0 0 0 .902-.733l-.728-4.237 3.083-3 .052-.056a.666.666 0 0 0-.422-1.08l-4.253-.618-1.902-3.853a.667.667 0 0 0-1.196 0l-1.902 3.853Z" fill="#E8E7EA"/></g><path d="m91.495 22.893-4.253.617-.075.015a.665.665 0 0 0-.294 1.123l3.082 3-.727 4.236-.009.073a.666.666 0 0 0 .976.63l3.804-2 3.796 2 .066.03a.667.667 0 0 0 .902-.733l-.728-4.237 3.083-3 .052-.056a.667.667 0 0 0-.422-1.08l-4.253-.618-1.902-3.853a.667.667 0 0 0-1.196 0l-1.902 3.853Z" fill="#E8E7EA"/><g clip-path="url(#c)"><path d="m108.495 22.893-4.253.617-.075.015a.67.67 0 0 0-.294 1.123l3.082 3-.727 4.236-.009.073a.67.67 0 0 0 .305.6.663.663 0 0 0 .671.03l3.804-2 3.796 2 .066.03a.667.667 0 0 0 .902-.733l-.728-4.237 3.083-3 .052-.056a.668.668 0 0 0-.422-1.08l-4.253-.618-1.902-3.853a.665.665 0 0 0-.95-.271.672.672 0 0 0-.246.271l-1.902 3.853Z" fill="#E8E7EA"/></g><g clip-path="url(#d)"><path d="M120.889 25.458a.99.99 0 0 1-.35-1.094.99.99 0 0 1 .923-.684l4-.151a.105.105 0 0 0 .055-.02.108.108 0 0 0 .034-.047l1.382-3.733a.99.99 0 0 1 1.492-.47.99.99 0 0 1 .362.47l1.377 3.747a.102.102 0 0 0 .089.066l4 .151a.99.99 0 0 1 .923.684.986.986 0 0 1-.349 1.094l-3.138 2.467a.103.103 0 0 0-.035.047.107.107 0 0 0-.001.06l1.08 3.826a.988.988 0 0 1-.517 1.136.99.99 0 0 1-.434.104.988.988 0 0 1-.551-.169l-3.315-2.222a.1.1 0 0 0-.112 0l-3.315 2.222a.988.988 0 0 1-1.502-1.089l1.089-3.84a.106.106 0 0 0-.002-.058.105.105 0 0 0-.034-.048l-3.151-2.45Zm6.964 4.373a.98.98 0 0 1 .551.169l3.32 2.222a.1.1 0 0 0 .118.001.1.1 0 0 0 .034-.112l-1.089-3.84a.976.976 0 0 1 .324-1.044l3.156-2.467a.094.094 0 0 0 .036-.05.092.092 0 0 0 0-.06.097.097 0 0 0-.094-.068l-4-.15a.99.99 0 0 1-.876-.654l-1.377-3.747a.094.094 0 0 0-.035-.05.09.09 0 0 0-.059-.017l-.009 9.867Z" fill="#E9E8ED"/></g><defs><clipPath id="a"><path fill="#fff" transform="translate(52 18)" d="M0 0h16v16H0z"/></clipPath><clipPath id="b"><path fill="#fff" transform="translate(69 18)" d="M0 0h16v16H0z"/></clipPath><clipPath id="c"><path fill="#fff" transform="translate(103 18)" d="M0 0h16v16H0z"/></clipPath><clipPath id="d"><path fill="#fff" transform="matrix(-1 0 0 1 136 18)" d="M0 0h16v16H0z"/></clipPath></defs></svg>
