<svg width="49" height="49" fill="none" xmlns="http://www.w3.org/2000/svg"><circle cx="24.5" cy="24.238" r="23.5" stroke="#DC296C"/><path d="M24.497 21.037a3.208 3.208 0 0 0-3.2 3.2 3.208 3.208 0 0 0 3.2 3.202 3.208 3.208 0 0 0 3.202-3.201 3.208 3.208 0 0 0-3.202-3.201Zm9.602 3.2c0-1.325.012-2.638-.063-3.962-.074-1.537-.425-2.9-1.549-4.025-1.126-1.126-2.488-1.475-4.025-1.549-1.325-.074-2.639-.062-3.962-.062-1.326 0-2.64-.012-3.963.062-1.537.074-2.9.425-4.025 1.55-1.126 1.125-1.474 2.487-1.549 4.024-.074 1.326-.062 2.64-.062 3.963s-.012 2.64.062 3.963c.075 1.537.425 2.9 1.55 4.025 1.125 1.126 2.487 1.474 4.024 1.549 1.326.074 2.64.062 3.963.062 1.326 0 2.64.012 3.962-.062 1.537-.075 2.901-.425 4.025-1.55 1.127-1.126 1.475-2.487 1.55-4.024.076-1.324.062-2.637.062-3.963Zm-9.602 4.927a4.919 4.919 0 0 1-4.925-4.926c0-2.726 2.2-4.926 4.925-4.926 2.726 0 4.926 2.2 4.926 4.926s-2.2 4.926-4.926 4.926Zm5.128-8.903c-.637 0-1.15-.514-1.15-1.15 0-.637.513-1.15 1.15-1.15a1.149 1.149 0 0 1 .814 1.963 1.15 1.15 0 0 1-.814.337Z" fill="#fff"/></svg>
