<svg width="49" height="49" fill="none" xmlns="http://www.w3.org/2000/svg"><circle cx="24.5" cy="24.238" r="23.5" stroke="#DC296C"/><path d="M16.1 21.525c0-.83.153-1.614.455-2.346a5.966 5.966 0 0 1 1.263-1.923 8.725 8.725 0 0 1 4.107-2.319c.804-.2 1.631-.3 2.462-.3 1.283 0 2.477.258 3.584.77a6.685 6.685 0 0 1 2.694 2.234c.691.977 1.035 2.081 1.035 3.312a9.98 9.98 0 0 1-.233 2.167 8.524 8.524 0 0 1-.728 2.041 7.037 7.037 0 0 1-1.219 1.726 5.33 5.33 0 0 1-1.766 1.188 5.859 5.859 0 0 1-2.304.445c-.55 0-1.1-.122-1.643-.369-.543-.245-.933-.582-1.168-1.015-.082.3-.194.733-.344 1.3-.145.565-.241.93-.284 1.096-.045.164-.129.438-.25.818a5.34 5.34 0 0 1-.317.82l-.387.72a8.42 8.42 0 0 1-.561.894c-.204.28-.456.613-.757.997l-.168.057-.112-.115c-.12-1.21-.182-1.933-.182-2.172 0-.707.089-1.5.264-2.382.173-.88.445-1.987.812-3.317.366-1.33.575-2.112.632-2.343-.258-.499-.389-1.15-.389-1.95 0-.639.21-1.237.633-1.8.424-.562.959-.843 1.608-.843.496 0 .882.156 1.158.469.277.311.412.704.412 1.183 0 .508-.178 1.243-.536 2.204-.358.963-.537 1.68-.537 2.158 0 .483.183.888.548 1.204.36.317.836.49 1.328.48.446 0 .86-.097 1.244-.29.378-.187.705-.455.956-.782a6.377 6.377 0 0 0 1.146-2.374c.108-.45.191-.878.243-1.28.055-.404.08-.786.08-1.15 0-1.33-.447-2.367-1.334-3.11-.89-.742-2.051-1.111-3.478-1.111-1.624 0-2.981.497-4.068 1.495-1.088.994-1.636 2.258-1.636 3.792 0 .338.054.664.157.98.1.315.21.566.328.751.117.183.227.361.327.525.102.165.155.282.155.352 0 .216-.06.497-.18.843-.125.347-.273.52-.451.52-.017 0-.087-.012-.209-.036a2.514 2.514 0 0 1-1.102-.646 3.368 3.368 0 0 1-.743-1.09 7.16 7.16 0 0 1-.396-1.248 4.95 4.95 0 0 1-.149-1.23Z" fill="#fff"/></svg>
