<svg width="49" height="49" viewBox="0 0 49 49" fill="none" xmlns="http://www.w3.org/2000/svg">
<circle cx="24.5" cy="24.2379" r="23.5" stroke="#DC296C"/>
<g clip-path="url(#clip0_211_1881)">
<path d="M31.8552 22.5116C30.2038 22.5155 28.5929 22.0005 27.2501 21.0393V27.743C27.2497 28.9846 26.8702 30.1965 26.1624 31.2166C25.4546 32.2367 24.4522 33.0164 23.2893 33.4514C22.1265 33.8864 20.8585 33.9561 19.6549 33.651C18.4514 33.346 17.3697 32.6808 16.5544 31.7444C15.7391 30.8079 15.2292 29.6449 15.0927 28.4108C14.9563 27.1768 15.1998 25.9304 15.7908 24.8385C16.3818 23.7466 17.2921 22.8611 18.3999 22.3005C19.5078 21.7399 20.7603 21.5309 21.9902 21.7014V25.0731C21.4274 24.8961 20.8231 24.9014 20.2635 25.0883C19.7039 25.2752 19.2178 25.6342 18.8744 26.1139C18.531 26.5936 18.3479 27.1696 18.3514 27.7596C18.3549 28.3495 18.5447 28.9233 18.8937 29.3989C19.2427 29.8746 19.7331 30.2278 20.2948 30.4081C20.8566 30.5884 21.4609 30.5866 22.0216 30.403C22.5822 30.2193 23.0705 29.8632 23.4167 29.3855C23.7629 28.9078 23.9493 28.333 23.9493 27.743V14.6379H27.2501C27.2478 14.9167 27.2712 15.1951 27.3199 15.4695C27.4346 16.0822 27.6731 16.6651 28.0208 17.1825C28.3685 17.6999 28.8181 18.1409 29.342 18.4785C30.0875 18.9714 30.9615 19.2342 31.8552 19.234V22.5116Z" fill="white"/>
</g>
<defs>
<clipPath id="clip0_211_1881">
<rect width="19.2" height="19.2" fill="white" transform="translate(14.9 14.6379)"/>
</clipPath>
</defs>
</svg>
