<svg width="49" height="49" viewBox="0 0 49 49" fill="none" xmlns="http://www.w3.org/2000/svg">
<circle cx="24.5" cy="24.2379" r="23.5" stroke="#DC296C"/>
<g clip-path="url(#clip0_211_1874)">
<path d="M24.5 36.2103C31.124 36.2103 36.4939 30.8417 36.4939 24.2193C36.4939 17.5968 31.124 12.2283 24.5 12.2283C17.876 12.2283 12.5061 17.5968 12.5061 24.2193C12.5061 30.8417 17.876 36.2103 24.5 36.2103Z" fill="white"/>
<path d="M17.1118 17.272L22.8447 24.9355L17.0756 31.1663H18.3741L23.425 25.711L27.5059 31.1663H31.9244L25.8687 23.0718L31.2386 17.272H29.9401L25.2887 22.296L21.5302 17.272H17.1118ZM19.0212 18.2281H21.0511L30.0146 30.2101H27.9848L19.0212 18.2281Z" fill="#111111"/>
</g>
<defs>
<clipPath id="clip0_211_1874">
<rect width="24" height="23.9624" fill="white" transform="translate(12.5 12.2379)"/>
</clipPath>
</defs>
</svg>
