<svg width="49" height="49" fill="none" xmlns="http://www.w3.org/2000/svg"><circle cx="24.5" cy="24.238" r="23.5" stroke="#DC296C"/><g clip-path="url(#a)"><path d="M24.5 36.21c6.624 0 11.994-5.368 11.994-11.99 0-6.623-5.37-11.992-11.994-11.992S12.506 17.597 12.506 24.22c0 6.623 5.37 11.991 11.994 11.991Z" fill="#fff"/><path d="m17.112 17.272 5.733 7.664-5.77 6.23h1.3l5.05-5.455 4.08 5.455h4.42l-6.056-8.094 5.37-5.8H29.94l-4.651 5.024-3.759-5.024h-4.418Zm1.91.956h2.03l8.963 11.982h-2.03L19.02 18.228Z" fill="#111"/></g><defs><clipPath id="a"><path fill="#fff" transform="translate(12.5 12.238)" d="M0 0h24v23.962H0z"/></clipPath></defs></svg>
