<svg width="49" height="49" fill="none" xmlns="http://www.w3.org/2000/svg"><circle cx="24.5" cy="24.238" r="23.5" stroke="#DC296C"/><g clip-path="url(#a)"><path d="M35.125 20.257c0-.17-.266-1.525-.887-2.118a2.84 2.84 0 0 0-2.129-.932h-.088c-2.75-.169-6.83-.169-6.92-.169 0 0-4.169 0-6.919.17h-.088a2.84 2.84 0 0 0-2.13.931c-.62.678-.887 2.033-.887 2.202 0 .085-.177 1.61-.177 3.22V25c0 1.609.177 3.133.177 3.218 0 .17.267 1.525.887 2.118.71.762 1.597.847 2.13.931h.266c1.596.17 6.475.17 6.653.17 0 0 4.169 0 6.919-.17h.089c.443-.084 1.33-.169 2.129-.931.62-.678.887-2.033.887-2.203 0-.084.177-1.61.177-3.218v-1.44c.089-1.525-.089-3.135-.089-3.22Zm-6.564 4.15-5.322 2.71c-.09 0-.09.085-.178.085-.089 0-.177 0-.177-.084-.089-.085-.178-.17-.178-.339v-5.506c0-.17.089-.254.178-.339.088-.084.266-.084.443 0l5.323 2.71c.177.086.266.17.266.34s-.178.339-.355.423Z" fill="#fff"/></g><defs><clipPath id="a"><path fill="#fff" transform="translate(14.9 14.638)" d="M0 0h20.4v19.2H0z"/></clipPath></defs></svg>
